<?xml version="1.0" encoding="UTF-8"?>
<!DOCTYPE svg PUBLIC "-//W3C//DTD SVG 1.1//EN" "http://www.w3.org/Graphics/SVG/1.1/DTD/svg11.dtd">
<svg xmlns="http://www.w3.org/2000/svg" version="1.1" width="96px" height="96px" style="shape-rendering:geometricPrecision; text-rendering:geometricPrecision; image-rendering:optimizeQuality; fill-rule:evenodd; clip-rule:evenodd" xmlns:xlink="http://www.w3.org/1999/xlink">
<g><path style="opacity:0.884" fill="#ff6f00" d="M 38.5,11.5 C 60.8417,8.41058 75.675,17.4106 83,38.5C 86.5788,60.8564 77.7454,75.6897 56.5,83C 34.1436,86.5788 19.3103,77.7454 12,56.5C 8.61234,34.1004 17.4457,19.1004 38.5,11.5 Z M 40.5,18.5 C 58.4135,16.2796 70.2469,23.613 76,40.5C 78.7123,58.4302 71.5457,70.2635 54.5,76C 36.5698,78.7123 24.7365,71.5457 19,54.5C 16.4994,36.5416 23.666,24.5416 40.5,18.5 Z"/></g>
<g><path style="opacity:0.883" fill="#e65000" d="M -0.5,57.5 C -0.5,50.8333 -0.5,44.1667 -0.5,37.5C 1.48156,28.5403 5.81489,20.8736 12.5,14.5C 14.3159,15.8149 15.9825,17.3149 17.5,19C 6.25491,31.8053 3.42158,46.3053 9,62.5C 10.9583,67.5904 13.7916,72.0904 17.5,76C 15.9825,77.6851 14.3159,79.1851 12.5,80.5C 5.81489,74.1264 1.48156,66.4597 -0.5,57.5 Z"/></g>
<g><path style="opacity:0.888" fill="#e65000" d="M 95.5,37.5 C 95.5,44.1667 95.5,50.8333 95.5,57.5C 93.5184,66.4597 89.1851,74.1264 82.5,80.5C 80.6841,79.1851 79.0175,77.6851 77.5,76C 88.7451,63.1947 91.5784,48.6947 86,32.5C 84.0417,27.4096 81.2084,22.9096 77.5,19C 79.0175,17.3149 80.6841,15.8149 82.5,14.5C 89.1851,20.8736 93.5184,28.5403 95.5,37.5 Z"/></g>
<g><path style="opacity:1" fill="#e55100" d="M 43.5,25.5 C 46.1667,25.5 48.8333,25.5 51.5,25.5C 51.5,35.5 51.5,45.5 51.5,55.5C 48.8333,55.5 46.1667,55.5 43.5,55.5C 43.5,45.5 43.5,35.5 43.5,25.5 Z"/></g>
<g><path style="opacity:1" fill="#e55100" d="M 43.5,61.5 C 46.1667,61.5 48.8333,61.5 51.5,61.5C 51.5,64.1667 51.5,66.8333 51.5,69.5C 48.8333,69.5 46.1667,69.5 43.5,69.5C 43.5,66.8333 43.5,64.1667 43.5,61.5 Z"/></g>
</svg>
