<?xml version="1.0" encoding="UTF-8"?>
<!DOCTYPE svg PUBLIC "-//W3C//DTD SVG 1.1//EN" "http://www.w3.org/Graphics/SVG/1.1/DTD/svg11.dtd">
<svg xmlns="http://www.w3.org/2000/svg" version="1.1" width="96px" height="96px" style="shape-rendering:geometricPrecision; text-rendering:geometricPrecision; image-rendering:optimizeQuality; fill-rule:evenodd; clip-rule:evenodd" xmlns:xlink="http://www.w3.org/1999/xlink">
<g><path style="opacity:0.998" fill="#8fc9f8" d="M 71.5,79.5 C 55.5,79.5 39.5,79.5 23.5,79.5C 23.5,58.1667 23.5,36.8333 23.5,15.5C 23.5,12.8333 23.5,10.1667 23.5,7.5C 37.1707,7.33343 50.8374,7.5001 64.5,8C 69.3333,12.8333 74.1667,17.6667 79,22.5C 79.4999,41.4971 79.6666,60.4971 79.5,79.5C 76.8333,79.5 74.1667,79.5 71.5,79.5 Z"/></g>
<g><path style="opacity:1" fill="#dcf2fd" d="M 61.5,10.5 C 66.6313,15.1302 71.6313,19.9635 76.5,25C 71.5111,25.4993 66.5111,25.6659 61.5,25.5C 61.5,20.5 61.5,15.5 61.5,10.5 Z"/></g>
<g><path style="opacity:1" fill="#42a5f5" d="M 23.5,15.5 C 23.5,36.8333 23.5,58.1667 23.5,79.5C 39.5,79.5 55.5,79.5 71.5,79.5C 71.5,82.1667 71.5,84.8333 71.5,87.5C 52.8333,87.5 34.1667,87.5 15.5,87.5C 15.5,63.5 15.5,39.5 15.5,15.5C 18.1667,15.5 20.8333,15.5 23.5,15.5 Z"/></g>
<g><path style="opacity:1" fill="#1a76d2" d="M 51.5,52.5 C 50.1667,52.5 48.8333,52.5 47.5,52.5C 47.8064,49.6146 47.4731,46.9479 46.5,44.5C 46.5,40.8333 46.5,37.1667 46.5,33.5C 48.1667,33.5 49.8333,33.5 51.5,33.5C 51.5,39.8333 51.5,46.1667 51.5,52.5 Z"/></g>
<g><path style="opacity:1" fill="#519de4" d="M 46.5,44.5 C 47.4731,46.9479 47.8064,49.6146 47.5,52.5C 48.8333,52.5 50.1667,52.5 51.5,52.5C 50.0813,53.4511 48.4147,53.7845 46.5,53.5C 46.5,50.5 46.5,47.5 46.5,44.5 Z"/></g>
<g><path style="opacity:1" fill="#257cd5" d="M 47.5,56.5 C 52.1585,56.0146 53.4919,57.848 51.5,62C 46.7282,62.8104 45.3948,60.9771 47.5,56.5 Z"/></g>
</svg>
