<?xml version="1.0" encoding="UTF-8"?>
<!DOCTYPE svg PUBLIC "-//W3C//DTD SVG 1.1//EN" "http://www.w3.org/Graphics/SVG/1.1/DTD/svg11.dtd">
<svg xmlns="http://www.w3.org/2000/svg" version="1.1" width="48px" height="48px" style="shape-rendering:geometricPrecision; text-rendering:geometricPrecision; image-rendering:optimizeQuality; fill-rule:evenodd; clip-rule:evenodd" xmlns:xlink="http://www.w3.org/1999/xlink">
<g><path style="opacity:0.974" fill="#00bbd3" d="M 34.5,3.5 C 37.7441,5.07126 40.4108,7.40459 42.5,10.5C 40.9547,11.4519 39.288,11.7852 37.5,11.5C 37.666,16.8437 37.4994,22.1771 37,27.5C 36.5,28 36,28.5 35.5,29C 29.8431,29.4994 24.1764,29.6661 18.5,29.5C 18.5,28.1667 18.5,26.8333 18.5,25.5C 22.8461,25.6657 27.1794,25.499 31.5,25C 32,24.5 32.5,24 33,23.5C 33.4988,19.5138 33.6655,15.5138 33.5,11.5C 31.712,11.7852 30.0453,11.4519 28.5,10.5C 30.5227,8.14715 32.5227,5.81382 34.5,3.5 Z"/></g>
<g><path style="opacity:0.967" fill="#01bbd3" d="M 11.5,17.5 C 17.1667,17.5 22.8333,17.5 28.5,17.5C 28.5,18.8333 28.5,20.1667 28.5,21.5C 24.1539,21.3343 19.8206,21.501 15.5,22C 15,22.5 14.5,23 14,23.5C 13.5012,27.4862 13.3345,31.4862 13.5,35.5C 15.288,35.2148 16.9547,35.5481 18.5,36.5C 16.5,39.1667 14.1667,41.5 11.5,43.5C 8.83333,41.5 6.5,39.1667 4.5,36.5C 6.04533,35.5481 7.71199,35.2148 9.5,35.5C 9.33398,30.1563 9.50065,24.8229 10,19.5C 10.7172,18.9558 11.2172,18.2891 11.5,17.5 Z"/></g>
</svg>
