<?xml version="1.0" encoding="UTF-8"?>
<!DOCTYPE svg PUBLIC "-//W3C//DTD SVG 1.1//EN" "http://www.w3.org/Graphics/SVG/1.1/DTD/svg11.dtd">
<svg xmlns="http://www.w3.org/2000/svg" version="1.1" width="48px" height="48px" style="shape-rendering:geometricPrecision; text-rendering:geometricPrecision; image-rendering:optimizeQuality; fill-rule:evenodd; clip-rule:evenodd" xmlns:xlink="http://www.w3.org/1999/xlink">
<g><path style="opacity:0.98" fill="#00bbd3" d="M 18.5,4.5 C 24.1667,4.5 29.8333,4.5 35.5,4.5C 35.5,7.83333 35.5,11.1667 35.5,14.5C 29.8236,14.6661 24.1569,14.4994 18.5,14C 16.981,12.6487 15.6477,11.1487 14.5,9.5C 15.8569,7.81439 17.1902,6.14772 18.5,4.5 Z"/></g>
<g><path style="opacity:0.875" fill="#92a7b0" d="M 10.5,12.5 C 9.83333,12.5 9.16667,12.5 8.5,12.5C 7.30652,12.0296 6.63985,11.0296 6.5,9.5C 8.5,4.16667 10.5,4.16667 12.5,9.5C 12.3601,11.0296 11.6935,12.0296 10.5,12.5 Z"/></g>
<g><path style="opacity:1" fill="#ced8db" d="M 8.5,12.5 C 9.16667,12.5 9.83333,12.5 10.5,12.5C 10.5,15.1667 10.5,17.8333 10.5,20.5C 9.83333,20.5 9.16667,20.5 8.5,20.5C 8.5,17.8333 8.5,15.1667 8.5,12.5 Z"/></g>
<g><path style="opacity:0.985" fill="#3e50b4" d="M 18.5,18.5 C 26.5,18.5 34.5,18.5 42.5,18.5C 42.5,21.8333 42.5,25.1667 42.5,28.5C 34.4931,28.6664 26.4931,28.4997 18.5,28C 16.981,26.6487 15.6477,25.1487 14.5,23.5C 15.8569,21.8144 17.1902,20.1477 18.5,18.5 Z"/></g>
<g><path style="opacity:0.875" fill="#8ea4ad" d="M 8.5,20.5 C 9.16667,20.5 9.83333,20.5 10.5,20.5C 11.6935,20.9704 12.3601,21.9704 12.5,23.5C 12.3601,25.0296 11.6935,26.0296 10.5,26.5C 9.83333,26.5 9.16667,26.5 8.5,26.5C 7.30652,26.0296 6.63985,25.0296 6.5,23.5C 6.63985,21.9704 7.30652,20.9704 8.5,20.5 Z"/></g>
<g><path style="opacity:1" fill="#ced8db" d="M 8.5,26.5 C 9.16667,26.5 9.83333,26.5 10.5,26.5C 10.5,29.1667 10.5,31.8333 10.5,34.5C 9.83333,34.5 9.16667,34.5 8.5,34.5C 8.5,31.8333 8.5,29.1667 8.5,26.5 Z"/></g>
<g><path style="opacity:0.995" fill="#4389ff" d="M 18.5,32.5 C 23.8333,32.5 29.1667,32.5 34.5,32.5C 34.5,35.8333 34.5,39.1667 34.5,42.5C 29.1563,42.666 23.8229,42.4994 18.5,42C 16.981,40.6487 15.6477,39.1487 14.5,37.5C 15.8569,35.8144 17.1902,34.1477 18.5,32.5 Z"/></g>
<g><path style="opacity:0.875" fill="#92a7b0" d="M 8.5,34.5 C 9.16667,34.5 9.83333,34.5 10.5,34.5C 11.6935,34.9704 12.3601,35.9704 12.5,37.5C 10.5,42.8333 8.5,42.8333 6.5,37.5C 6.63985,35.9704 7.30652,34.9704 8.5,34.5 Z"/></g>
</svg>
