<?xml version="1.0" encoding="UTF-8"?>
<!DOCTYPE svg PUBLIC "-//W3C//DTD SVG 1.1//EN" "http://www.w3.org/Graphics/SVG/1.1/DTD/svg11.dtd">
<svg xmlns="http://www.w3.org/2000/svg" version="1.1" width="48px" height="48px" style="shape-rendering:geometricPrecision; text-rendering:geometricPrecision; image-rendering:optimizeQuality; fill-rule:evenodd; clip-rule:evenodd" xmlns:xlink="http://www.w3.org/1999/xlink">
<g><path style="opacity:0.957" fill="#02bbd3" d="M 25.5,12.5 C 24.1667,12.5 22.8333,12.5 21.5,12.5C 18.6676,10.5935 17.8343,7.92681 19,4.5C 26,0.5 29,2.5 28,10.5C 27.2917,11.3805 26.4584,12.0472 25.5,12.5 Z"/></g>
<g><path style="opacity:0.964" fill="#06bcd3" d="M 11.5,12.5 C 11.1075,14.2838 10.4408,15.9505 9.5,17.5C 1.51371,18.002 -0.486289,14.8353 3.5,8C 8.15918,6.34855 10.8258,7.84855 11.5,12.5 Z"/></g>
<g><path style="opacity:1" fill="#ced8db" d="M 21.5,12.5 C 22.8333,12.5 24.1667,12.5 25.5,12.5C 25.5,13.8333 25.5,15.1667 25.5,16.5C 24.1667,16.5 22.8333,16.5 21.5,16.5C 21.5,15.1667 21.5,13.8333 21.5,12.5 Z"/></g>
<g><path style="opacity:0.92" fill="#cbd6db" d="M 11.5,12.5 C 14.0472,13.9336 16.3805,15.6002 18.5,17.5C 18.2671,19.0618 17.6005,20.3951 16.5,21.5C 14.0313,20.4314 11.6979,19.0981 9.5,17.5C 10.4408,15.9505 11.1075,14.2838 11.5,12.5 Z"/></g>
<g><path style="opacity:0.97" fill="#01bbd3" d="M 34.5,24.5 C 33.962,22.8828 33.6287,21.2161 33.5,19.5C 34.8276,15.746 37.4942,14.5793 41.5,16C 45.2507,23.7524 42.9173,26.5857 34.5,24.5 Z"/></g>
<g><path style="opacity:0.981" fill="#4152b5" d="M 21.5,16.5 C 22.8333,16.5 24.1667,16.5 25.5,16.5C 27.4044,16.7376 28.7377,17.7376 29.5,19.5C 30.3007,21.0418 30.634,22.7085 30.5,24.5C 30.5674,25.9587 30.2341,27.2921 29.5,28.5C 27.847,28.6596 26.5137,29.3263 25.5,30.5C 24.1667,30.5 22.8333,30.5 21.5,30.5C 20.078,29.075 18.4113,28.075 16.5,27.5C 16.5,25.5 16.5,23.5 16.5,21.5C 17.6005,20.3951 18.2671,19.0618 18.5,17.5C 19.391,16.8902 20.391,16.5569 21.5,16.5 Z"/></g>
<g><path style="opacity:0.89" fill="#c9d8dd" d="M 29.5,19.5 C 30.8333,19.5 32.1667,19.5 33.5,19.5C 33.6287,21.2161 33.962,22.8828 34.5,24.5C 33.1667,24.5 31.8333,24.5 30.5,24.5C 30.634,22.7085 30.3007,21.0418 29.5,19.5 Z"/></g>
<g><path style="opacity:0.927" fill="#ccd5db" d="M 16.5,27.5 C 18.4113,28.075 20.078,29.075 21.5,30.5C 19.7267,33.0599 17.7267,35.3932 15.5,37.5C 14.1667,36.8333 12.8333,36.1667 11.5,35.5C 13.1667,32.8333 14.8333,30.1667 16.5,27.5 Z"/></g>
<g><path style="opacity:0.905" fill="#ced7dd" d="M 29.5,28.5 C 31.0627,29.9448 32.396,31.6115 33.5,33.5C 31.4862,33.3915 29.8195,34.0582 28.5,35.5C 27.2632,34.0351 26.2632,32.3684 25.5,30.5C 26.5137,29.3263 27.847,28.6596 29.5,28.5 Z"/></g>
<g><path style="opacity:0.96" fill="#0bbcd3" d="M 33.5,33.5 C 38.1514,34.1742 39.6514,36.8408 38,41.5C 31.1647,45.4863 27.998,43.4863 28.5,35.5C 29.8195,34.0582 31.4862,33.3915 33.5,33.5 Z"/></g>
<g><path style="opacity:0.97" fill="#09bcd3" d="M 11.5,35.5 C 12.8333,36.1667 14.1667,36.8333 15.5,37.5C 16.002,45.4863 12.8353,47.4863 6,43.5C 4.17815,38.1707 6.01148,35.504 11.5,35.5 Z"/></g>
</svg>
