<?xml version="1.0" encoding="UTF-8"?>
<!DOCTYPE svg PUBLIC "-//W3C//DTD SVG 1.1//EN" "http://www.w3.org/Graphics/SVG/1.1/DTD/svg11.dtd">
<svg xmlns="http://www.w3.org/2000/svg" version="1.1" width="48px" height="48px" style="shape-rendering:geometricPrecision; text-rendering:geometricPrecision; image-rendering:optimizeQuality; fill-rule:evenodd; clip-rule:evenodd" xmlns:xlink="http://www.w3.org/1999/xlink">
<g><path style="opacity:0.922" fill="#3e51b4" d="M 36.5,5.5 C 38.5,5.5 40.5,5.5 42.5,5.5C 42.5,7.5 42.5,9.5 42.5,11.5C 38.526,11.987 34.8593,13.3203 31.5,15.5C 28.8292,14.6433 26.1626,14.1433 23.5,14C 21.1345,15.7895 19.4679,17.9561 18.5,20.5C 13.9673,19.3555 9.30064,18.6888 4.5,18.5C 4.5,16.5 4.5,14.5 4.5,12.5C 7.86491,12.255 11.0316,12.9217 14,14.5C 17.1066,12.8988 19.2733,10.5655 20.5,7.5C 24.0128,7.30746 27.3462,7.97412 30.5,9.5C 33.2862,9.12276 35.2862,7.78943 36.5,5.5 Z"/></g>
<g><path style="opacity:1" fill="#00bcd4" d="M 36.5,17.5 C 38.5,17.5 40.5,17.5 42.5,17.5C 42.5,25.5 42.5,33.5 42.5,41.5C 40.5,41.5 38.5,41.5 36.5,41.5C 36.5,33.5 36.5,25.5 36.5,17.5 Z"/></g>
<g><path style="opacity:1" fill="#00bcd4" d="M 20.5,21.5 C 22.5,21.5 24.5,21.5 26.5,21.5C 26.5,28.1667 26.5,34.8333 26.5,41.5C 24.5,41.5 22.5,41.5 20.5,41.5C 20.5,34.8333 20.5,28.1667 20.5,21.5 Z"/></g>
<g><path style="opacity:1" fill="#00bcd4" d="M 28.5,25.5 C 30.5,25.5 32.5,25.5 34.5,25.5C 34.5,30.8333 34.5,36.1667 34.5,41.5C 32.5,41.5 30.5,41.5 28.5,41.5C 28.5,36.1667 28.5,30.8333 28.5,25.5 Z"/></g>
<g><path style="opacity:1" fill="#00bcd4" d="M 4.5,27.5 C 6.5,27.5 8.5,27.5 10.5,27.5C 10.5,32.1667 10.5,36.8333 10.5,41.5C 8.5,41.5 6.5,41.5 4.5,41.5C 4.5,36.8333 4.5,32.1667 4.5,27.5 Z"/></g>
<g><path style="opacity:1" fill="#00bcd4" d="M 12.5,31.5 C 14.5,31.5 16.5,31.5 18.5,31.5C 18.5,34.8333 18.5,38.1667 18.5,41.5C 16.5,41.5 14.5,41.5 12.5,41.5C 12.5,38.1667 12.5,34.8333 12.5,31.5 Z"/></g>
</svg>
