<?xml version="1.0" encoding="UTF-8"?>
<!DOCTYPE svg PUBLIC "-//W3C//DTD SVG 1.1//EN" "http://www.w3.org/Graphics/SVG/1.1/DTD/svg11.dtd">
<svg xmlns="http://www.w3.org/2000/svg" version="1.1" width="48px" height="48px" style="shape-rendering:geometricPrecision; text-rendering:geometricPrecision; image-rendering:optimizeQuality; fill-rule:evenodd; clip-rule:evenodd" xmlns:xlink="http://www.w3.org/1999/xlink">
<g><path style="opacity:0.953" fill="#01bbd4" d="M 36.5,4.5 C 38.5,4.5 40.5,4.5 42.5,4.5C 41.249,9.64978 38.749,14.3165 35,18.5C 34.51,19.7932 34.3433,21.1266 34.5,22.5C 32.396,22.7989 30.396,22.4656 28.5,21.5C 23.7157,17.248 20.3823,18.248 18.5,24.5C 13.8333,23.8333 9.16667,23.1667 4.5,22.5C 4.5,20.5 4.5,18.5 4.5,16.5C 8.36382,16.5924 12.0305,17.0924 15.5,18C 17.7794,15.207 20.446,13.0403 23.5,11.5C 25.8208,12.7328 28.1541,14.0662 30.5,15.5C 33.4054,12.2781 35.4054,8.61138 36.5,4.5 Z"/></g>
<g><path style="opacity:0.922" fill="#3e51b4" d="M 36.5,27.5 C 38.5,27.5 40.5,27.5 42.5,27.5C 42.5,29.5 42.5,31.5 42.5,33.5C 38.526,33.987 34.8593,35.3203 31.5,37.5C 28.8292,36.6433 26.1626,36.1433 23.5,36C 21.1345,37.7895 19.4679,39.9561 18.5,42.5C 13.9673,41.3555 9.30064,40.6888 4.5,40.5C 4.5,38.5 4.5,36.5 4.5,34.5C 7.86491,34.255 11.0316,34.9217 14,36.5C 17.1066,34.8988 19.2733,32.5655 20.5,29.5C 24.0128,29.3075 27.3462,29.9741 30.5,31.5C 33.2862,31.1228 35.2862,29.7894 36.5,27.5 Z"/></g>
</svg>
