<?xml version="1.0" encoding="UTF-8"?>
<!DOCTYPE svg PUBLIC "-//W3C//DTD SVG 1.1//EN" "http://www.w3.org/Graphics/SVG/1.1/DTD/svg11.dtd">
<svg xmlns="http://www.w3.org/2000/svg" version="1.1" width="96px" height="96px" style="shape-rendering:geometricPrecision; text-rendering:geometricPrecision; image-rendering:optimizeQuality; fill-rule:evenodd; clip-rule:evenodd" xmlns:xlink="http://www.w3.org/1999/xlink">
<g><path style="opacity:0.955" fill="#424241" d="M 67.5,33.5 C 66.5423,34.9616 65.3756,36.2949 64,37.5C 63.6667,33.8333 63.3333,30.1667 63,26.5C 60.6178,23.7807 57.9512,21.4474 55,19.5C 47.5,22 40,24.5 32.5,27C 31.7069,30.4106 31.2069,33.9106 31,37.5C 29.6244,36.2949 28.4577,34.9616 27.5,33.5C 25.9957,13.6677 34.9957,5.3344 54.5,8.5C 58.1516,10.7675 61.6516,13.4342 65,16.5C 67.2047,21.9315 68.038,27.5982 67.5,33.5 Z"/></g>
<g><path style="opacity:0.986" fill="#fdb54b" d="M 67.5,33.5 C 68.1174,33.6107 68.6174,33.944 69,34.5C 69.6667,36.5 69.6667,38.5 69,40.5C 67.9887,41.3366 66.8221,41.67 65.5,41.5C 65.2275,47.4137 62.5608,51.747 57.5,54.5C 50.8047,58.4318 44.1381,58.4318 37.5,54.5C 32.4392,51.747 29.7725,47.4137 29.5,41.5C 28.1779,41.67 27.0113,41.3366 26,40.5C 25.3333,38.5 25.3333,36.5 26,34.5C 26.3826,33.944 26.8826,33.6107 27.5,33.5C 28.4577,34.9616 29.6244,36.2949 31,37.5C 31.2069,33.9106 31.7069,30.4106 32.5,27C 40,24.5 47.5,22 55,19.5C 57.9512,21.4474 60.6178,23.7807 63,26.5C 63.3333,30.1667 63.6667,33.8333 64,37.5C 65.3756,36.2949 66.5423,34.9616 67.5,33.5 Z"/></g>
<g><path style="opacity:1" fill="#804d1c" d="M 38.5,35.5 C 41.8606,36.2032 42.1939,37.5365 39.5,39.5C 37.3576,38.5629 37.0243,37.2296 38.5,35.5 Z"/></g>
<g><path style="opacity:1" fill="#804d1c" d="M 54.5,35.5 C 57.8606,36.2032 58.1939,37.5365 55.5,39.5C 53.3576,38.5629 53.0243,37.2296 54.5,35.5 Z"/></g>
<g><path style="opacity:1" fill="#ff9b11" d="M 37.5,54.5 C 44.1381,58.4318 50.8047,58.4318 57.5,54.5C 57.5,56.8333 57.5,59.1667 57.5,61.5C 50.8103,63.9519 44.1436,63.9519 37.5,61.5C 37.5,59.1667 37.5,56.8333 37.5,54.5 Z"/></g>
<g><path style="opacity:0.976" fill="#546e7a" d="M 37.5,61.5 C 39.5944,66.6849 41.9278,71.6849 44.5,76.5C 46.5,87.1667 48.5,87.1667 50.5,76.5C 53.0722,71.6849 55.4056,66.6849 57.5,61.5C 71.7305,64.3929 79.0638,73.0595 79.5,87.5C 58.1667,87.5 36.8333,87.5 15.5,87.5C 15.9362,73.0595 23.2695,64.3929 37.5,61.5 Z"/></g>
<g><path style="opacity:1" fill="#f9f1ee" d="M 37.5,61.5 C 44.1436,63.9519 50.8103,63.9519 57.5,61.5C 55.4056,66.6849 53.0722,71.6849 50.5,76.5C 49.8733,73.2661 49.8733,70.0994 50.5,67C 48.4641,63.7067 46.4641,63.8734 44.5,67.5C 45.0662,70.4174 45.0662,73.4174 44.5,76.5C 41.9278,71.6849 39.5944,66.6849 37.5,61.5 Z"/></g>
<g><path style="opacity:1" fill="#d23937" d="M 50.5,76.5 C 48.5,87.1667 46.5,87.1667 44.5,76.5C 45.0662,73.4174 45.0662,70.4174 44.5,67.5C 46.4641,63.8734 48.4641,63.7067 50.5,67C 49.8733,70.0994 49.8733,73.2661 50.5,76.5 Z"/></g>
</svg>
