<?xml version="1.0" encoding="UTF-8"?>
<!DOCTYPE svg PUBLIC "-//W3C//DTD SVG 1.1//EN" "http://www.w3.org/Graphics/SVG/1.1/DTD/svg11.dtd">
<svg xmlns="http://www.w3.org/2000/svg" version="1.1" width="96px" height="96px" style="shape-rendering:geometricPrecision; text-rendering:geometricPrecision; image-rendering:optimizeQuality; fill-rule:evenodd; clip-rule:evenodd" xmlns:xlink="http://www.w3.org/1999/xlink">
<g><path style="opacity:1" fill="#3949ab" d="M 89.5,25.5 C 61.5,25.5 33.5,25.5 5.5,25.5C 5.5,22.8333 5.5,20.1667 5.5,17.5C 33.5,17.5 61.5,17.5 89.5,17.5C 89.5,20.1667 89.5,22.8333 89.5,25.5 Z"/></g>
<g><path style="opacity:1" fill="#5c6bc0" d="M 5.5,25.5 C 33.5,25.5 61.5,25.5 89.5,25.5C 89.5,27.5 89.5,29.5 89.5,31.5C 79.5,31.5 69.5,31.5 59.5,31.5C 55.5,31.5 51.5,31.5 47.5,31.5C 37.5,31.5 27.5,31.5 17.5,31.5C 13.5,31.5 9.5,31.5 5.5,31.5C 5.5,29.5 5.5,27.5 5.5,25.5 Z"/></g>
<g><path style="opacity:1" fill="#c4cae8" d="M 5.5,31.5 C 9.5,31.5 13.5,31.5 17.5,31.5C 17.5,46.8333 17.5,62.1667 17.5,77.5C 13.5,77.5 9.5,77.5 5.5,77.5C 5.5,62.1667 5.5,46.8333 5.5,31.5 Z"/></g>
<g><path style="opacity:1" fill="#9ea8da" d="M 17.5,31.5 C 27.5,31.5 37.5,31.5 47.5,31.5C 47.5,46.8333 47.5,62.1667 47.5,77.5C 37.5,77.5 27.5,77.5 17.5,77.5C 17.5,62.1667 17.5,46.8333 17.5,31.5 Z"/></g>
<g><path style="opacity:1" fill="#c4cae8" d="M 47.5,31.5 C 51.5,31.5 55.5,31.5 59.5,31.5C 59.5,46.8333 59.5,62.1667 59.5,77.5C 55.5,77.5 51.5,77.5 47.5,77.5C 47.5,62.1667 47.5,46.8333 47.5,31.5 Z"/></g>
<g><path style="opacity:1" fill="#9ea8da" d="M 59.5,31.5 C 69.5,31.5 79.5,31.5 89.5,31.5C 89.5,46.8333 89.5,62.1667 89.5,77.5C 79.5,77.5 69.5,77.5 59.5,77.5C 59.5,62.1667 59.5,46.8333 59.5,31.5 Z"/></g>
<g><path style="opacity:1" fill="#5c6bc0" d="M 9.5,35.5 C 10.8333,35.5 12.1667,35.5 13.5,35.5C 13.5,36.8333 13.5,38.1667 13.5,39.5C 12.1667,39.5 10.8333,39.5 9.5,39.5C 9.5,38.1667 9.5,36.8333 9.5,35.5 Z"/></g>
<g><path style="opacity:1" fill="#5c6bc0" d="M 23.5,35.5 C 29.5,35.5 35.5,35.5 41.5,35.5C 41.5,36.8333 41.5,38.1667 41.5,39.5C 35.5,39.5 29.5,39.5 23.5,39.5C 23.5,38.1667 23.5,36.8333 23.5,35.5 Z"/></g>
<g><path style="opacity:1" fill="#5c6bc0" d="M 51.5,35.5 C 52.8333,35.5 54.1667,35.5 55.5,35.5C 55.5,36.8333 55.5,38.1667 55.5,39.5C 54.1667,39.5 52.8333,39.5 51.5,39.5C 51.5,38.1667 51.5,36.8333 51.5,35.5 Z"/></g>
<g><path style="opacity:1" fill="#5c6bc0" d="M 65.5,35.5 C 71.5,35.5 77.5,35.5 83.5,35.5C 83.5,36.8333 83.5,38.1667 83.5,39.5C 77.5,39.5 71.5,39.5 65.5,39.5C 65.5,38.1667 65.5,36.8333 65.5,35.5 Z"/></g>
<g><path style="opacity:1" fill="#5c6bc0" d="M 9.5,43.5 C 10.8333,43.5 12.1667,43.5 13.5,43.5C 13.5,44.8333 13.5,46.1667 13.5,47.5C 12.1667,47.5 10.8333,47.5 9.5,47.5C 9.5,46.1667 9.5,44.8333 9.5,43.5 Z"/></g>
<g><path style="opacity:1" fill="#5c6bc0" d="M 23.5,43.5 C 28.1667,43.5 32.8333,43.5 37.5,43.5C 37.5,44.8333 37.5,46.1667 37.5,47.5C 32.8333,47.5 28.1667,47.5 23.5,47.5C 23.5,46.1667 23.5,44.8333 23.5,43.5 Z"/></g>
<g><path style="opacity:1" fill="#5c6bc0" d="M 51.5,43.5 C 52.8333,43.5 54.1667,43.5 55.5,43.5C 55.5,44.8333 55.5,46.1667 55.5,47.5C 54.1667,47.5 52.8333,47.5 51.5,47.5C 51.5,46.1667 51.5,44.8333 51.5,43.5 Z"/></g>
<g><path style="opacity:1" fill="#5c6bc0" d="M 65.5,43.5 C 71.5,43.5 77.5,43.5 83.5,43.5C 83.5,44.8333 83.5,46.1667 83.5,47.5C 77.5,47.5 71.5,47.5 65.5,47.5C 65.5,46.1667 65.5,44.8333 65.5,43.5 Z"/></g>
<g><path style="opacity:1" fill="#5c6bc0" d="M 9.5,51.5 C 10.8333,51.5 12.1667,51.5 13.5,51.5C 13.5,52.8333 13.5,54.1667 13.5,55.5C 12.1667,55.5 10.8333,55.5 9.5,55.5C 9.5,54.1667 9.5,52.8333 9.5,51.5 Z"/></g>
<g><path style="opacity:1" fill="#5c6bc0" d="M 23.5,51.5 C 29.5,51.5 35.5,51.5 41.5,51.5C 41.5,52.8333 41.5,54.1667 41.5,55.5C 35.5,55.5 29.5,55.5 23.5,55.5C 23.5,54.1667 23.5,52.8333 23.5,51.5 Z"/></g>
<g><path style="opacity:1" fill="#5c6bc0" d="M 51.5,51.5 C 52.8333,51.5 54.1667,51.5 55.5,51.5C 55.5,52.8333 55.5,54.1667 55.5,55.5C 54.1667,55.5 52.8333,55.5 51.5,55.5C 51.5,54.1667 51.5,52.8333 51.5,51.5 Z"/></g>
<g><path style="opacity:1" fill="#5c6bc0" d="M 65.5,51.5 C 70.1667,51.5 74.8333,51.5 79.5,51.5C 79.5,52.8333 79.5,54.1667 79.5,55.5C 74.8333,55.5 70.1667,55.5 65.5,55.5C 65.5,54.1667 65.5,52.8333 65.5,51.5 Z"/></g>
<g><path style="opacity:1" fill="#5c6bc0" d="M 33.5,61.5 C 36.1667,61.5 38.8333,61.5 41.5,61.5C 41.5,62.8333 41.5,64.1667 41.5,65.5C 38.8333,65.5 36.1667,65.5 33.5,65.5C 33.5,64.1667 33.5,62.8333 33.5,61.5 Z"/></g>
<g><path style="opacity:1" fill="#5c6bc0" d="M 75.5,61.5 C 78.1667,61.5 80.8333,61.5 83.5,61.5C 83.5,62.8333 83.5,64.1667 83.5,65.5C 80.8333,65.5 78.1667,65.5 75.5,65.5C 75.5,64.1667 75.5,62.8333 75.5,61.5 Z"/></g>
<g><path style="opacity:1" fill="#5c6bc0" d="M 9.5,69.5 C 10.8333,69.5 12.1667,69.5 13.5,69.5C 13.5,70.8333 13.5,72.1667 13.5,73.5C 12.1667,73.5 10.8333,73.5 9.5,73.5C 9.5,72.1667 9.5,70.8333 9.5,69.5 Z"/></g>
<g><path style="opacity:1" fill="#5c6bc0" d="M 23.5,69.5 C 29.5,69.5 35.5,69.5 41.5,69.5C 41.5,70.8333 41.5,72.1667 41.5,73.5C 35.5,73.5 29.5,73.5 23.5,73.5C 23.5,72.1667 23.5,70.8333 23.5,69.5 Z"/></g>
<g><path style="opacity:1" fill="#5c6bc0" d="M 51.5,69.5 C 52.8333,69.5 54.1667,69.5 55.5,69.5C 55.5,70.8333 55.5,72.1667 55.5,73.5C 54.1667,73.5 52.8333,73.5 51.5,73.5C 51.5,72.1667 51.5,70.8333 51.5,69.5 Z"/></g>
<g><path style="opacity:1" fill="#5c6bc0" d="M 65.5,69.5 C 71.5,69.5 77.5,69.5 83.5,69.5C 83.5,70.8333 83.5,72.1667 83.5,73.5C 77.5,73.5 71.5,73.5 65.5,73.5C 65.5,72.1667 65.5,70.8333 65.5,69.5 Z"/></g>
</svg>
