<?xml version="1.0" encoding="UTF-8"?>
<!DOCTYPE svg PUBLIC "-//W3C//DTD SVG 1.1//EN" "http://www.w3.org/Graphics/SVG/1.1/DTD/svg11.dtd">
<svg xmlns="http://www.w3.org/2000/svg" version="1.1" width="96px" height="96px" style="shape-rendering:geometricPrecision; text-rendering:geometricPrecision; image-rendering:optimizeQuality; fill-rule:evenodd; clip-rule:evenodd" xmlns:xlink="http://www.w3.org/1999/xlink">
<g><path style="opacity:1" fill="#64b5f6" d="M 57.5,15.5 C 44.1667,15.5 30.8333,15.5 17.5,15.5C 17.5,13.5 17.5,11.5 17.5,9.5C 30.8333,9.5 44.1667,9.5 57.5,9.5C 57.5,11.5 57.5,13.5 57.5,15.5 Z"/></g>
<g><path style="opacity:0.999" fill="#8fc9f8" d="M 17.5,15.5 C 30.8333,15.5 44.1667,15.5 57.5,15.5C 59.4672,15.2606 61.3005,15.5939 63,16.5C 63.4993,21.4889 63.6659,26.4889 63.5,31.5C 63.5,48.1667 63.5,64.8333 63.5,81.5C 46.1667,81.5 28.8333,81.5 11.5,81.5C 11.3334,59.8308 11.5,38.1641 12,16.5C 13.6995,15.5939 15.5328,15.2606 17.5,15.5 Z"/></g>
<g><path style="opacity:1" fill="#1564c0" d="M 19.5,23.5 C 22.1667,23.5 24.8333,23.5 27.5,23.5C 27.5,26.1667 27.5,28.8333 27.5,31.5C 24.8333,31.5 22.1667,31.5 19.5,31.5C 19.5,28.8333 19.5,26.1667 19.5,23.5 Z"/></g>
<g><path style="opacity:1" fill="#1564c0" d="M 33.5,23.5 C 36.1667,23.5 38.8333,23.5 41.5,23.5C 41.5,26.1667 41.5,28.8333 41.5,31.5C 38.8333,31.5 36.1667,31.5 33.5,31.5C 33.5,28.8333 33.5,26.1667 33.5,23.5 Z"/></g>
<g><path style="opacity:1" fill="#1564c0" d="M 47.5,23.5 C 50.1667,23.5 52.8333,23.5 55.5,23.5C 55.5,26.1667 55.5,28.8333 55.5,31.5C 52.8333,31.5 50.1667,31.5 47.5,31.5C 47.5,28.8333 47.5,26.1667 47.5,23.5 Z"/></g>
<g><path style="opacity:0.995" fill="#1e88e4" d="M 63.5,31.5 C 68.8437,31.334 74.1771,31.5006 79.5,32C 81.3333,32.5 82.5,33.6667 83,35.5C 83.4999,50.8297 83.6666,66.163 83.5,81.5C 76.8333,81.5 70.1667,81.5 63.5,81.5C 63.5,64.8333 63.5,48.1667 63.5,31.5 Z"/></g>
<g><path style="opacity:1" fill="#1564c0" d="M 19.5,37.5 C 22.1667,37.5 24.8333,37.5 27.5,37.5C 27.5,40.1667 27.5,42.8333 27.5,45.5C 24.8333,45.5 22.1667,45.5 19.5,45.5C 19.5,42.8333 19.5,40.1667 19.5,37.5 Z"/></g>
<g><path style="opacity:1" fill="#1564c0" d="M 33.5,37.5 C 36.1667,37.5 38.8333,37.5 41.5,37.5C 41.5,40.1667 41.5,42.8333 41.5,45.5C 38.8333,45.5 36.1667,45.5 33.5,45.5C 33.5,42.8333 33.5,40.1667 33.5,37.5 Z"/></g>
<g><path style="opacity:1" fill="#1564c0" d="M 47.5,37.5 C 50.1667,37.5 52.8333,37.5 55.5,37.5C 55.5,40.1667 55.5,42.8333 55.5,45.5C 52.8333,45.5 50.1667,45.5 47.5,45.5C 47.5,42.8333 47.5,40.1667 47.5,37.5 Z"/></g>
<g><path style="opacity:1" fill="#0d46a1" d="M 67.5,41.5 C 70.1667,41.5 72.8333,41.5 75.5,41.5C 75.5,44.1667 75.5,46.8333 75.5,49.5C 72.8333,49.5 70.1667,49.5 67.5,49.5C 67.5,46.8333 67.5,44.1667 67.5,41.5 Z"/></g>
<g><path style="opacity:1" fill="#1564c0" d="M 19.5,51.5 C 22.1667,51.5 24.8333,51.5 27.5,51.5C 27.5,54.1667 27.5,56.8333 27.5,59.5C 24.8333,59.5 22.1667,59.5 19.5,59.5C 19.5,56.8333 19.5,54.1667 19.5,51.5 Z"/></g>
<g><path style="opacity:1" fill="#1564c0" d="M 33.5,51.5 C 36.1667,51.5 38.8333,51.5 41.5,51.5C 41.5,54.1667 41.5,56.8333 41.5,59.5C 38.8333,59.5 36.1667,59.5 33.5,59.5C 33.5,56.8333 33.5,54.1667 33.5,51.5 Z"/></g>
<g><path style="opacity:1" fill="#1564c0" d="M 47.5,51.5 C 50.1667,51.5 52.8333,51.5 55.5,51.5C 55.5,54.1667 55.5,56.8333 55.5,59.5C 52.8333,59.5 50.1667,59.5 47.5,59.5C 47.5,56.8333 47.5,54.1667 47.5,51.5 Z"/></g>
<g><path style="opacity:1" fill="#0d46a1" d="M 67.5,55.5 C 70.1667,55.5 72.8333,55.5 75.5,55.5C 75.5,58.1667 75.5,60.8333 75.5,63.5C 72.8333,63.5 70.1667,63.5 67.5,63.5C 67.5,60.8333 67.5,58.1667 67.5,55.5 Z"/></g>
<g><path style="opacity:1" fill="#1564c0" d="M 19.5,65.5 C 22.1667,65.5 24.8333,65.5 27.5,65.5C 27.5,69.5 27.5,73.5 27.5,77.5C 24.8333,77.5 22.1667,77.5 19.5,77.5C 19.5,73.5 19.5,69.5 19.5,65.5 Z"/></g>
<g><path style="opacity:1" fill="#1564c0" d="M 33.5,65.5 C 36.1667,65.5 38.8333,65.5 41.5,65.5C 41.5,69.5 41.5,73.5 41.5,77.5C 38.8333,77.5 36.1667,77.5 33.5,77.5C 33.5,73.5 33.5,69.5 33.5,65.5 Z"/></g>
<g><path style="opacity:1" fill="#1564c0" d="M 47.5,65.5 C 50.1667,65.5 52.8333,65.5 55.5,65.5C 55.5,69.5 55.5,73.5 55.5,77.5C 52.8333,77.5 50.1667,77.5 47.5,77.5C 47.5,73.5 47.5,69.5 47.5,65.5 Z"/></g>
<g><path style="opacity:1" fill="#0d46a1" d="M 67.5,69.5 C 70.1667,69.5 72.8333,69.5 75.5,69.5C 75.5,72.1667 75.5,74.8333 75.5,77.5C 72.8333,77.5 70.1667,77.5 67.5,77.5C 67.5,74.8333 67.5,72.1667 67.5,69.5 Z"/></g>
<g><path style="opacity:1" fill="#64b5f6" d="M 11.5,81.5 C 28.8333,81.5 46.1667,81.5 63.5,81.5C 63.5,82.8333 63.5,84.1667 63.5,85.5C 46.1667,85.5 28.8333,85.5 11.5,85.5C 11.5,84.1667 11.5,82.8333 11.5,81.5 Z"/></g>
<g><path style="opacity:1" fill="#1975d2" d="M 63.5,81.5 C 70.1667,81.5 76.8333,81.5 83.5,81.5C 83.5,82.8333 83.5,84.1667 83.5,85.5C 76.8333,85.5 70.1667,85.5 63.5,85.5C 63.5,84.1667 63.5,82.8333 63.5,81.5 Z"/></g>
</svg>
