<?xml version="1.0" encoding="UTF-8"?>
<!DOCTYPE svg PUBLIC "-//W3C//DTD SVG 1.1//EN" "http://www.w3.org/Graphics/SVG/1.1/DTD/svg11.dtd">
<svg xmlns="http://www.w3.org/2000/svg" version="1.1" width="48px" height="48px" style="shape-rendering:geometricPrecision; text-rendering:geometricPrecision; image-rendering:optimizeQuality; fill-rule:evenodd; clip-rule:evenodd" xmlns:xlink="http://www.w3.org/1999/xlink">
<g><path style="opacity:0.913" fill="#90a4ae" d="M 27.5,11.5 C 27.5,12.5 27.5,13.5 27.5,14.5C 26.6879,15.9931 25.3545,16.6598 23.5,16.5C 21.6455,16.6598 20.3121,15.9931 19.5,14.5C 19.5,13.5 19.5,12.5 19.5,11.5C 19.062,5.68671 21.562,4.02004 27,6.5C 27.4935,8.13414 27.6602,9.80081 27.5,11.5 Z M 22.5,8.5 C 24.337,8.63945 24.6704,9.30612 23.5,10.5C 22.7025,10.0431 22.3691,9.37644 22.5,8.5 Z"/></g>
<g><path style="opacity:0.992" fill="#445963" d="M 19.5,11.5 C 19.5,12.5 19.5,13.5 19.5,14.5C 15.1667,14.5 10.8333,14.5 6.5,14.5C 6.5,21.8333 6.5,29.1667 6.5,36.5C 17.8333,36.5 29.1667,36.5 40.5,36.5C 40.5,29.1667 40.5,21.8333 40.5,14.5C 36.1667,14.5 31.8333,14.5 27.5,14.5C 27.5,13.5 27.5,12.5 27.5,11.5C 32.7616,11.1953 37.9283,11.5286 43,12.5C 43.6667,21.1667 43.6667,29.8333 43,38.5C 36.5774,39.1574 30.0774,39.4907 23.5,39.5C 16.9226,39.4907 10.4226,39.1574 4,38.5C 3.33333,29.8333 3.33333,21.1667 4,12.5C 9.07172,11.5286 14.2384,11.1953 19.5,11.5 Z"/></g>
<g><path style="opacity:1" fill="#fafbfb" d="M 19.5,14.5 C 20.3121,15.9931 21.6455,16.6598 23.5,16.5C 25.3545,16.6598 26.6879,15.9931 27.5,14.5C 31.8333,14.5 36.1667,14.5 40.5,14.5C 40.5,21.8333 40.5,29.1667 40.5,36.5C 29.1667,36.5 17.8333,36.5 6.5,36.5C 6.5,29.1667 6.5,21.8333 6.5,14.5C 10.8333,14.5 15.1667,14.5 19.5,14.5 Z"/></g>
<g><path style="opacity:1" fill="#5e564c" d="M 18.5,24.5 C 16.1667,21.8333 13.8333,21.8333 11.5,24.5C 11.997,19.5072 14.1637,18.5072 18,21.5C 18.4828,22.448 18.6495,23.448 18.5,24.5 Z"/></g>
<g><path style="opacity:1" fill="#ced8db" d="M 23.5,20.5 C 28.1667,20.5 32.8333,20.5 37.5,20.5C 37.5,21.8333 37.5,23.1667 37.5,24.5C 32.8333,24.5 28.1667,24.5 23.5,24.5C 23.5,23.1667 23.5,21.8333 23.5,20.5 Z"/></g>
<g><path style="opacity:1" fill="#f9b24c" d="M 18.5,24.5 C 18.1667,25.8333 17.8333,27.1667 17.5,28.5C 16.0387,29.6857 14.7054,29.6857 13.5,28.5C 12.8333,27.1667 12.1667,25.8333 11.5,24.5C 13.8333,21.8333 16.1667,21.8333 18.5,24.5 Z"/></g>
<g><path style="opacity:1" fill="#209b8c" d="M 13.5,28.5 C 14.7054,29.6857 16.0387,29.6857 17.5,28.5C 19.69,29.3745 20.69,31.0411 20.5,33.5C 16.774,33.8226 13.1073,33.4892 9.5,32.5C 10.5213,30.812 11.8546,29.4787 13.5,28.5 Z"/></g>
</svg>
