<?xml version="1.0" encoding="UTF-8"?>
<!DOCTYPE svg PUBLIC "-//W3C//DTD SVG 1.1//EN" "http://www.w3.org/Graphics/SVG/1.1/DTD/svg11.dtd">
<svg xmlns="http://www.w3.org/2000/svg" version="1.1" width="96px" height="96px" style="shape-rendering:geometricPrecision; text-rendering:geometricPrecision; image-rendering:optimizeQuality; fill-rule:evenodd; clip-rule:evenodd" xmlns:xlink="http://www.w3.org/1999/xlink">
<g><path style="opacity:0.961" fill="#546e7a" d="M 81.5,41.5 C 79.6101,37.9435 77.1101,37.6102 74,40.5C 73.7638,42.764 73.2638,44.9307 72.5,47C 69.1667,47.6667 65.8333,47.6667 62.5,47C 62.1097,43.8089 60.7763,41.1423 58.5,39C 55.8333,39.3333 53.1667,39.6667 50.5,40C 48.903,37.4728 47.5697,34.8061 46.5,32C 52.1151,27.2227 51.7818,23.056 45.5,19.5C 46.5041,15.9922 48.1707,12.8255 50.5,10C 52.783,9.70876 54.9497,10.2088 57,11.5C 60.8079,10.2244 62.3079,7.55775 61.5,3.5C 65.5,3.5 69.5,3.5 73.5,3.5C 72.6921,7.55775 74.1921,10.2244 78,11.5C 80.1583,10.549 82.325,10.049 84.5,10C 86.681,12.6935 88.3476,15.6935 89.5,19C 87.3514,20.756 85.6848,22.9227 84.5,25.5C 85.5842,28.088 87.2509,30.2546 89.5,32C 87.8801,34.7384 86.3801,37.5718 85,40.5C 83.9887,41.3366 82.8221,41.67 81.5,41.5 Z"/></g>
<g><path style="opacity:0.993" fill="#baddfa" d="M 29.5,19.5 C 29.5,32.8333 29.5,46.1667 29.5,59.5C 21.2367,58.3452 15.2367,61.3452 11.5,68.5C 11.3334,50.8302 11.5001,33.1635 12,15.5C 15.7572,8.73065 21.5905,6.06398 29.5,7.5C 29.5,11.5 29.5,15.5 29.5,19.5 Z"/></g>
<g><path style="opacity:1" fill="#455b65" d="M 63.5,13.5 C 76.0181,13.5049 80.8514,19.5049 78,31.5C 71,39.5 64,39.5 57,31.5C 53.8203,23.5325 55.987,17.5325 63.5,13.5 Z"/></g>
<g><path style="opacity:1" fill="#43a5f5" d="M 29.5,19.5 C 30.8333,19.5 32.1667,19.5 33.5,19.5C 33.5,37.5 33.5,55.5 33.5,73.5C 28.4889,73.3341 23.4889,73.5007 18.5,74C 16.1435,75.914 14.1435,78.0807 12.5,80.5C 11.5701,76.6002 11.2367,72.6002 11.5,68.5C 15.2367,61.3452 21.2367,58.3452 29.5,59.5C 29.5,46.1667 29.5,32.8333 29.5,19.5 Z"/></g>
<g><path style="opacity:0.999" fill="#8fc9f8" d="M 33.5,19.5 C 37.5,19.5 41.5,19.5 45.5,19.5C 51.7818,23.056 52.1151,27.2227 46.5,32C 47.5697,34.8061 48.903,37.4728 50.5,40C 53.1667,39.6667 55.8333,39.3333 58.5,39C 60.7763,41.1423 62.1097,43.8089 62.5,47C 65.8333,47.6667 69.1667,47.6667 72.5,47C 73.2638,44.9307 73.7638,42.764 74,40.5C 77.1101,37.6102 79.6101,37.9435 81.5,41.5C 81.5,56.8333 81.5,72.1667 81.5,87.5C 61.1639,87.6666 40.8306,87.5 20.5,87C 16.8009,85.9985 14.1342,83.8319 12.5,80.5C 14.1435,78.0807 16.1435,75.914 18.5,74C 23.4889,73.5007 28.4889,73.3341 33.5,73.5C 33.5,55.5 33.5,37.5 33.5,19.5 Z"/></g>
<g><path style="opacity:1" fill="#8dc5f3" d="M 64.5,19.5 C 72.8068,19.2804 75.1402,22.7804 71.5,30C 65.7867,33.0594 62.4533,31.3927 61.5,25C 61.8627,22.8077 62.8627,20.9744 64.5,19.5 Z"/></g>
</svg>
