<?xml version="1.0" encoding="UTF-8"?>
<!DOCTYPE svg PUBLIC "-//W3C//DTD SVG 1.1//EN" "http://www.w3.org/Graphics/SVG/1.1/DTD/svg11.dtd">
<svg xmlns="http://www.w3.org/2000/svg" version="1.1" width="96px" height="96px" style="shape-rendering:geometricPrecision; text-rendering:geometricPrecision; image-rendering:optimizeQuality; fill-rule:evenodd; clip-rule:evenodd" xmlns:xlink="http://www.w3.org/1999/xlink">
<g><path style="opacity:0.978" fill="#9ea7d9" d="M 89.5,41.5 C 79.366,41.8971 79.366,44.0638 89.5,48C 91.4357,48.813 93.4357,49.313 95.5,49.5C 95.5,53.5 95.5,57.5 95.5,61.5C 92.3703,63.0226 89.037,63.6893 85.5,63.5C 85.15,56.9852 81.65,53.6518 75,53.5C 68.5817,54.3272 65.415,57.9939 65.5,64.5C 53.5,64.5 41.5,64.5 29.5,64.5C 29.6289,57.4606 26.1289,53.7939 19,53.5C 12.9222,54.0776 9.75557,57.4109 9.5,63.5C 5.96302,63.6893 2.62969,63.0226 -0.5,61.5C -0.5,57.5 -0.5,53.5 -0.5,49.5C 1.19919,49.6602 2.86586,49.4935 4.5,49C 7.60143,48.1451 10.2681,46.6451 12.5,44.5C 8.2172,43.5078 3.88387,43.1744 -0.5,43.5C -0.5,42.1667 -0.5,40.8333 -0.5,39.5C 6.26343,34.2408 12.5968,28.4075 18.5,22C 28.1667,21.3333 37.8333,21.3333 47.5,22C 56.6723,24.2514 64.6723,28.5847 71.5,35C 77.9918,36.1057 83.9918,38.2724 89.5,41.5 Z"/></g>
<g><path style="opacity:1" fill="#37474f" d="M 39.5,25.5 C 39.5,30.1667 39.5,34.8333 39.5,39.5C 30.8269,39.6664 22.1603,39.4998 13.5,39C 16.1667,34.6667 18.8333,30.3333 21.5,26C 27.4908,25.5005 33.4908,25.3338 39.5,25.5 Z"/></g>
<g><path style="opacity:1" fill="#212122" d="M 39.5,25.5 C 41.099,25.2322 42.4324,25.5655 43.5,26.5C 43.5,30.8333 43.5,35.1667 43.5,39.5C 42.1667,39.5 40.8333,39.5 39.5,39.5C 39.5,34.8333 39.5,30.1667 39.5,25.5 Z"/></g>
<g><path style="opacity:1" fill="#384851" d="M 43.5,26.5 C 53.6028,27.7183 62.2694,31.885 69.5,39C 60.8397,39.4998 52.1731,39.6664 43.5,39.5C 43.5,35.1667 43.5,30.8333 43.5,26.5 Z"/></g>
<g><path style="opacity:1" fill="#7986cb" d="M 39.5,39.5 C 40.8333,39.5 42.1667,39.5 43.5,39.5C 43.5,47.5 43.5,55.5 43.5,63.5C 42.1667,63.5 40.8333,63.5 39.5,63.5C 39.5,55.5 39.5,47.5 39.5,39.5 Z"/></g>
<g><path style="opacity:1" fill="#b0def8" d="M 89.5,41.5 C 91.7721,42.4411 93.7721,43.7745 95.5,45.5C 95.5,46.8333 95.5,48.1667 95.5,49.5C 93.4357,49.313 91.4357,48.813 89.5,48C 79.366,44.0638 79.366,41.8971 89.5,41.5 Z"/></g>
<g><path style="opacity:1" fill="#fd1b46" d="M -0.5,43.5 C 3.88387,43.1744 8.2172,43.5078 12.5,44.5C 10.2681,46.6451 7.60143,48.1451 4.5,49C 2.86586,49.4935 1.19919,49.6602 -0.5,49.5C -0.5,47.5 -0.5,45.5 -0.5,43.5 Z"/></g>
<g><path style="opacity:0.961" fill="#394851" d="M 29.5,64.5 C 29.03,70.6351 25.6966,73.6351 19.5,73.5C 12.8264,73.4931 9.49305,70.1597 9.5,63.5C 9.75557,57.4109 12.9222,54.0776 19,53.5C 26.1289,53.7939 29.6289,57.4606 29.5,64.5 Z"/></g>
<g><path style="opacity:0.961" fill="#394851" d="M 85.5,63.5 C 85.507,70.1597 82.1736,73.4931 75.5,73.5C 69.3034,73.6351 65.97,70.6351 65.5,64.5C 65.415,57.9939 68.5817,54.3272 75,53.5C 81.65,53.6518 85.15,56.9852 85.5,63.5 Z"/></g>
<g><path style="opacity:1" fill="#8b9ea8" d="M 17.5,59.5 C 23.4877,59.664 24.821,62.164 21.5,67C 15.4034,67.1475 14.0701,64.6475 17.5,59.5 Z"/></g>
<g><path style="opacity:1" fill="#8b9ea8" d="M 73.5,59.5 C 79.4877,59.664 80.821,62.164 77.5,67C 71.4034,67.1475 70.0701,64.6475 73.5,59.5 Z"/></g>
</svg>
