<?xml version="1.0" encoding="UTF-8"?>
<!DOCTYPE svg PUBLIC "-//W3C//DTD SVG 1.1//EN" "http://www.w3.org/Graphics/SVG/1.1/DTD/svg11.dtd">
<svg xmlns="http://www.w3.org/2000/svg" version="1.1" width="96px" height="96px" style="shape-rendering:geometricPrecision; text-rendering:geometricPrecision; image-rendering:optimizeQuality; fill-rule:evenodd; clip-rule:evenodd" xmlns:xlink="http://www.w3.org/1999/xlink">
<g><path style="opacity:0.976" fill="#65b5f5" d="M 48.5,8.5 C 44.4985,10.5889 40.1652,11.9223 35.5,12.5C 32.8193,9.80815 31.4859,6.47482 31.5,2.5C 33.6282,1.37086 35.9615,1.20419 38.5,2C 42.0323,3.92818 45.3656,6.09484 48.5,8.5 Z"/></g>
<g><path style="opacity:0.966" fill="#b7dcfa" d="M 31.5,2.5 C 31.4859,6.47482 32.8193,9.80815 35.5,12.5C 35.7376,14.4044 36.7376,15.7377 38.5,16.5C 41.1453,21.1453 44.8119,24.812 49.5,27.5C 49.8333,28.5 50.5,29.1667 51.5,29.5C 54.6004,32.2095 58.267,33.5429 62.5,33.5C 61.7375,34.2679 60.7375,34.7679 59.5,35C 55.8484,35.4986 52.1817,35.6653 48.5,35.5C 48.7373,36.791 48.404,37.791 47.5,38.5C 47.5,37.1667 47.5,35.8333 47.5,34.5C 41.8134,32.9957 37.1467,29.9957 33.5,25.5C 31.8368,23.5073 30.6701,21.1739 30,18.5C 29.3333,14.1667 29.3333,9.83333 30,5.5C 30.2321,4.26253 30.7321,3.26253 31.5,2.5 Z"/></g>
<g><path style="opacity:0.956" fill="#0e47a0" d="M 57.5,13.5 C 53.6509,13.9807 51.6509,12.314 51.5,8.5C 51.4142,7.5041 51.7476,6.67076 52.5,6C 54.5,5.33333 56.5,5.33333 58.5,6C 59.0968,7.06171 59.4302,8.22838 59.5,9.5C 59.6598,11.3545 58.9931,12.6879 57.5,13.5 Z"/></g>
<g><path style="opacity:1" fill="#65b3f1" d="M 49.5,27.5 C 44.8119,24.812 41.1453,21.1453 38.5,16.5C 42.7019,15.0333 47.0352,14.0333 51.5,13.5C 51.0496,18.2016 50.383,22.8683 49.5,27.5 Z"/></g>
<g><path style="opacity:0.992" fill="#54707f" d="M 48.5,8.5 C 49.5,8.5 50.5,8.5 51.5,8.5C 51.6509,12.314 53.6509,13.9807 57.5,13.5C 56.8902,14.391 56.5569,15.391 56.5,16.5C 54.9848,20.8966 53.3181,25.2299 51.5,29.5C 50.5,29.1667 49.8333,28.5 49.5,27.5C 50.383,22.8683 51.0496,18.2016 51.5,13.5C 47.0352,14.0333 42.7019,15.0333 38.5,16.5C 36.7376,15.7377 35.7376,14.4044 35.5,12.5C 40.1652,11.9223 44.4985,10.5889 48.5,8.5 Z"/></g>
<g><path style="opacity:0.971" fill="#64b4f2" d="M 56.5,16.5 C 61.7374,21.2543 63.7374,26.9209 62.5,33.5C 58.267,33.5429 54.6004,32.2095 51.5,29.5C 53.3181,25.2299 54.9848,20.8966 56.5,16.5 Z"/></g>
<g><path style="opacity:1" fill="#288ce6" d="M 33.5,25.5 C 37.1467,29.9957 41.8134,32.9957 47.5,34.5C 47.5,35.8333 47.5,37.1667 47.5,38.5C 41.2315,37.5552 36.2315,34.5552 32.5,29.5C 32.8333,28.1667 33.1667,26.8333 33.5,25.5 Z"/></g>
<g><path style="opacity:0.994" fill="#62b3f5" d="M 32.5,29.5 C 36.2315,34.5552 41.2315,37.5552 47.5,38.5C 47.5,38.8333 47.5,39.1667 47.5,39.5C 41.5,39.5 35.5,39.5 29.5,39.5C 29.0237,35.6215 30.0237,32.2882 32.5,29.5 Z"/></g>
<g><path style="opacity:0.994" fill="#c4c9e8" d="M 29.5,39.5 C 35.5,39.5 41.5,39.5 47.5,39.5C 52.5111,39.3341 57.5111,39.5007 62.5,40C 70.7615,47.3835 78.9282,54.8835 87,62.5C 87.4935,64.1341 87.6602,65.8008 87.5,67.5C 81.6867,67.062 80.02,69.562 82.5,75C 84.1341,75.4935 85.8008,75.6602 87.5,75.5C 89.4994,82.8198 86.8328,86.1531 79.5,85.5C 79.9488,78.0721 76.4488,74.0721 69,73.5C 62.2711,74.6052 59.1044,78.6052 59.5,85.5C 52.1667,85.5 44.8333,85.5 37.5,85.5C 37.9488,78.0721 34.4488,74.0721 27,73.5C 20.2711,74.6052 17.1044,78.6052 17.5,85.5C 9.16667,87.1667 5.83333,83.8333 7.5,75.5C 11.3924,74.2577 12.3924,71.7577 10.5,68C 9.55198,67.5172 8.55198,67.3505 7.5,67.5C 7.33358,58.8269 7.50025,50.1603 8,41.5C 8.5,41 9,40.5 9.5,40C 16.1583,39.5004 22.825,39.3337 29.5,39.5 Z"/></g>
<g><path style="opacity:1" fill="#465b65" d="M 57.5,45.5 C 59.1992,45.3398 60.8659,45.5065 62.5,46C 68.1667,51 73.8333,56 79.5,61C 72.1742,61.4997 64.8409,61.6663 57.5,61.5C 57.5,56.1667 57.5,50.8333 57.5,45.5 Z"/></g>
<g><path style="opacity:1" fill="#fc440f" d="M 7.5,67.5 C 8.55198,67.3505 9.55198,67.5172 10.5,68C 12.3924,71.7577 11.3924,74.2577 7.5,75.5C 7.5,72.8333 7.5,70.1667 7.5,67.5 Z"/></g>
<g><path style="opacity:1" fill="#fca113" d="M 87.5,67.5 C 87.5,70.1667 87.5,72.8333 87.5,75.5C 85.8008,75.6602 84.1341,75.4935 82.5,75C 80.02,69.562 81.6867,67.062 87.5,67.5 Z"/></g>
<g><path style="opacity:0.991" fill="#475c66" d="M 37.5,85.5 C 36.4941,91.01 33.1608,93.6767 27.5,93.5C 21.8392,93.6767 18.5059,91.01 17.5,85.5C 17.1044,78.6052 20.2711,74.6052 27,73.5C 34.4488,74.0721 37.9488,78.0721 37.5,85.5 Z"/></g>
<g><path style="opacity:0.991" fill="#475c66" d="M 79.5,85.5 C 78.4941,91.01 75.1608,93.6767 69.5,93.5C 63.8392,93.6767 60.5059,91.01 59.5,85.5C 59.1044,78.6052 62.2711,74.6052 69,73.5C 76.4488,74.0721 79.9488,78.0721 79.5,85.5 Z"/></g>
<g><path style="opacity:1" fill="#27333a" d="M 25.5,79.5 C 31.4877,79.664 32.821,82.164 29.5,87C 23.4034,87.1475 22.0701,84.6475 25.5,79.5 Z"/></g>
<g><path style="opacity:1" fill="#27333a" d="M 67.5,79.5 C 73.4877,79.664 74.821,82.164 71.5,87C 65.4034,87.1475 64.0701,84.6475 67.5,79.5 Z"/></g>
</svg>
