<?xml version="1.0" encoding="UTF-8"?>
<!DOCTYPE svg PUBLIC "-//W3C//DTD SVG 1.1//EN" "http://www.w3.org/Graphics/SVG/1.1/DTD/svg11.dtd">
<svg xmlns="http://www.w3.org/2000/svg" version="1.1" width="48px" height="48px" style="shape-rendering:geometricPrecision; text-rendering:geometricPrecision; image-rendering:optimizeQuality; fill-rule:evenodd; clip-rule:evenodd" xmlns:xlink="http://www.w3.org/1999/xlink">
<g><path style="opacity:0.925" fill="#ff5822" d="M 33.5,16.5 C 33.2172,17.2891 32.7172,17.9558 32,18.5C 32.0022,14.4532 30.3355,11.4532 27,9.5C 23.5,10.6667 20,11.8333 16.5,13C 15.7511,14.7337 15.2511,16.567 15,18.5C 14.2828,17.9558 13.7828,17.2891 13.5,16.5C 13.0405,6.28339 17.7071,2.28339 27.5,4.5C 32.9622,6.6419 34.9622,10.6419 33.5,16.5 Z"/></g>
<g><path style="opacity:0.966" fill="#fcb045" d="M 33.5,16.5 C 34.1239,16.9169 34.4573,17.5836 34.5,18.5C 32.4568,22.5863 30.4568,26.5863 28.5,30.5C 25.1667,31.8333 21.8333,31.8333 18.5,30.5C 16.5432,26.5863 14.5432,22.5863 12.5,18.5C 12.5427,17.5836 12.8761,16.9169 13.5,16.5C 13.7828,17.2891 14.2828,17.9558 15,18.5C 15.2511,16.567 15.7511,14.7337 16.5,13C 20,11.8333 23.5,10.6667 27,9.5C 30.3355,11.4532 32.0022,14.4532 32,18.5C 32.7172,17.9558 33.2172,17.2891 33.5,16.5 Z"/></g>
<g><path style="opacity:0.974" fill="#cdd6db" d="M 18.5,30.5 C 21.8333,31.8333 25.1667,31.8333 28.5,30.5C 36.1613,31.4921 39.8279,35.8254 39.5,43.5C 34.8333,43.5 30.1667,43.5 25.5,43.5C 24.1554,28.862 22.822,28.862 21.5,43.5C 16.8333,43.5 12.1667,43.5 7.5,43.5C 7.17208,35.8254 10.8387,31.4921 18.5,30.5 Z"/></g>
<g><path style="opacity:1" fill="#4a59b7" d="M 25.5,43.5 C 24.1667,43.5 22.8333,43.5 21.5,43.5C 22.822,28.862 24.1554,28.862 25.5,43.5 Z"/></g>
</svg>
