<?xml version="1.0" encoding="UTF-8"?>
<!DOCTYPE svg PUBLIC "-//W3C//DTD SVG 1.1//EN" "http://www.w3.org/Graphics/SVG/1.1/DTD/svg11.dtd">
<svg xmlns="http://www.w3.org/2000/svg" version="1.1" width="96px" height="96px" style="shape-rendering:geometricPrecision; text-rendering:geometricPrecision; image-rendering:optimizeQuality; fill-rule:evenodd; clip-rule:evenodd" xmlns:xlink="http://www.w3.org/1999/xlink">
<g><path style="opacity:1" fill="#808ccd" d="M 57.5,31.5 C 54.1667,31.5 50.8333,31.5 47.5,31.5C 47.5,29.5 47.5,27.5 47.5,25.5C 44.8333,25.5 42.1667,25.5 39.5,25.5C 39.5,22.8333 39.5,20.1667 39.5,17.5C 48.1667,17.5 56.8333,17.5 65.5,17.5C 65.5,20.1667 65.5,22.8333 65.5,25.5C 62.8333,25.5 60.1667,25.5 57.5,25.5C 57.5,27.5 57.5,29.5 57.5,31.5 Z"/></g>
<g><path style="opacity:0.995" fill="#3f51b4" d="M 47.5,31.5 C 50.8333,31.5 54.1667,31.5 57.5,31.5C 63.5,31.5 69.5,31.5 75.5,31.5C 75.5,37.5 75.5,43.5 75.5,49.5C 75.5,52.8333 75.5,56.1667 75.5,59.5C 75.6621,61.5273 75.4955,63.5273 75,65.5C 71.1667,69.3333 67.3333,73.1667 63.5,77C 54.1667,77.6667 44.8333,77.6667 35.5,77C 33.2046,73.7026 30.538,70.7026 27.5,68C 24.854,67.5026 22.1873,67.3359 19.5,67.5C 19.5,64.8333 19.5,62.1667 19.5,59.5C 19.5,56.1667 19.5,52.8333 19.5,49.5C 19.5,46.8333 19.5,44.1667 19.5,41.5C 22.1873,41.6641 24.854,41.4974 27.5,41C 30.5,38 33.5,35 36.5,32C 40.1516,31.5014 43.8183,31.3347 47.5,31.5 Z"/></g>
<g><path style="opacity:1" fill="#808ccd" d="M 19.5,49.5 C 19.5,52.8333 19.5,56.1667 19.5,59.5C 17.5,59.5 15.5,59.5 13.5,59.5C 13.5,62.1667 13.5,64.8333 13.5,67.5C 10.8333,67.5 8.16667,67.5 5.5,67.5C 5.5,58.8333 5.5,50.1667 5.5,41.5C 8.16667,41.5 10.8333,41.5 13.5,41.5C 13.5,44.1667 13.5,46.8333 13.5,49.5C 15.5,49.5 17.5,49.5 19.5,49.5 Z"/></g>
<g><path style="opacity:1" fill="#f4c234" d="M 49.5,41.5 C 52.1873,41.3359 54.854,41.5026 57.5,42C 55.1667,45.6667 52.8333,49.3333 50.5,53C 52.8333,53.3333 55.1667,53.6667 57.5,54C 52.637,59.5626 48.137,65.3959 44,71.5C 44.4497,66.8697 45.6163,62.3697 47.5,58C 45.5,57.6667 43.5,57.3333 41.5,57C 44.3072,51.885 46.9739,46.7183 49.5,41.5 Z"/></g>
<g><path style="opacity:1" fill="#808ccd" d="M 75.5,59.5 C 75.5,56.1667 75.5,52.8333 75.5,49.5C 77.5,49.5 79.5,49.5 81.5,49.5C 81.5,46.8333 81.5,44.1667 81.5,41.5C 84.1667,41.5 86.8333,41.5 89.5,41.5C 89.5,50.1667 89.5,58.8333 89.5,67.5C 86.8333,67.5 84.1667,67.5 81.5,67.5C 81.5,64.8333 81.5,62.1667 81.5,59.5C 79.5,59.5 77.5,59.5 75.5,59.5 Z"/></g>
</svg>
