<?xml version="1.0" encoding="UTF-8"?>
<!DOCTYPE svg PUBLIC "-//W3C//DTD SVG 1.1//EN" "http://www.w3.org/Graphics/SVG/1.1/DTD/svg11.dtd">
<svg xmlns="http://www.w3.org/2000/svg" version="1.1" width="48px" height="48px" style="shape-rendering:geometricPrecision; text-rendering:geometricPrecision; image-rendering:optimizeQuality; fill-rule:evenodd; clip-rule:evenodd" xmlns:xlink="http://www.w3.org/1999/xlink">
<g><path style="opacity:0.874" fill="#17b1c4" d="M 30.5,18.5 C 29.5,17.8333 28.5,17.1667 27.5,16.5C 26.7919,9.62613 22.9586,5.95947 16,5.5C 6.25598,8.32307 3.58931,14.3231 8,23.5C 11.181,26.6723 15.0143,28.0056 19.5,27.5C 19.1436,29.1898 18.1436,30.1898 16.5,30.5C 4.405,29.2061 -0.0950002,22.5395 3,10.5C 8.19671,2.42491 15.3634,0.258243 24.5,4C 29.3213,7.6228 31.3213,12.4561 30.5,18.5 Z"/></g>
<g><path style="opacity:1" fill="#e8eae9" d="M 27.5,16.5 C 24.0994,19.6353 21.4327,23.302 19.5,27.5C 15.0143,28.0056 11.181,26.6723 8,23.5C 3.58931,14.3231 6.25598,8.32307 16,5.5C 22.9586,5.95947 26.7919,9.62613 27.5,16.5 Z"/></g>
<g><path style="opacity:1" fill="#101819" d="M 15.5,7.5 C 17.22,9.65814 18.0533,12.3248 18,15.5C 18.972,17.3049 20.1387,18.9716 21.5,20.5C 21.1667,20.8333 20.8333,21.1667 20.5,21.5C 18.4602,19.823 16.4602,18.1563 14.5,16.5C 15.4066,13.5788 15.7399,10.5788 15.5,7.5 Z"/></g>
<g><path style="opacity:0.972" fill="#fabe0b" d="M 27.5,16.5 C 28.5,17.1667 29.5,17.8333 30.5,18.5C 36.2387,26.6475 40.9054,35.3141 44.5,44.5C 33.1667,44.5 21.8333,44.5 10.5,44.5C 10.3433,43.1266 10.51,41.7932 11,40.5C 13.1118,37.2729 14.9451,33.9396 16.5,30.5C 18.1436,30.1898 19.1436,29.1898 19.5,27.5C 21.4327,23.302 24.0994,19.6353 27.5,16.5 Z"/></g>
<g><path style="opacity:1" fill="#2a3437" d="M 26.5,26.5 C 27.7773,27.6936 28.4439,29.3603 28.5,31.5C 28.1667,33.1667 27.8333,34.8333 27.5,36.5C 26.513,33.2317 26.1796,29.8984 26.5,26.5 Z"/></g>
<g><path style="opacity:1" fill="#253237" d="M 26.5,38.5 C 28.337,38.6395 28.6704,39.3061 27.5,40.5C 26.7025,40.0431 26.3691,39.3764 26.5,38.5 Z"/></g>
</svg>
