<?xml version="1.0" encoding="UTF-8"?>
<!DOCTYPE svg PUBLIC "-//W3C//DTD SVG 1.1//EN" "http://www.w3.org/Graphics/SVG/1.1/DTD/svg11.dtd">
<svg xmlns="http://www.w3.org/2000/svg" version="1.1" width="96px" height="96px" style="shape-rendering:geometricPrecision; text-rendering:geometricPrecision; image-rendering:optimizeQuality; fill-rule:evenodd; clip-rule:evenodd" xmlns:xlink="http://www.w3.org/1999/xlink">
<g><path style="opacity:0.996" fill="#64b4f6" d="M 16.5,11.5 C 37.1694,11.3334 57.836,11.5 78.5,12C 80.3333,13.1667 81.8333,14.6667 83,16.5C 83.6667,37.1667 83.6667,57.8333 83,78.5C 81.8333,80.3333 80.3333,81.8333 78.5,83C 57.8333,83.6667 37.1667,83.6667 16.5,83C 14.6667,81.8333 13.1667,80.3333 12,78.5C 11.3333,57.8333 11.3333,37.1667 12,16.5C 13.3657,14.6383 14.8657,12.9717 16.5,11.5 Z"/></g>
<g><path style="opacity:1" fill="#fefffe" d="M 15.5,25.5 C 36.8333,25.5 58.1667,25.5 79.5,25.5C 79.5,40.1667 79.5,54.8333 79.5,69.5C 58.1667,69.5 36.8333,69.5 15.5,69.5C 15.5,54.8333 15.5,40.1667 15.5,25.5 Z"/></g>
<g><path style="opacity:1" fill="#ced8db" d="M 21.5,33.5 C 29.5,33.5 37.5,33.5 45.5,33.5C 45.5,37.5 45.5,41.5 45.5,45.5C 37.5,45.5 29.5,45.5 21.5,45.5C 21.5,41.5 21.5,37.5 21.5,33.5 Z"/></g>
<g><path style="opacity:1" fill="#ced8db" d="M 49.5,33.5 C 57.5,33.5 65.5,33.5 73.5,33.5C 73.5,37.5 73.5,41.5 73.5,45.5C 65.5,45.5 57.5,45.5 49.5,45.5C 49.5,41.5 49.5,37.5 49.5,33.5 Z"/></g>
<g><path style="opacity:1" fill="#ced8db" d="M 21.5,49.5 C 38.8333,49.5 56.1667,49.5 73.5,49.5C 73.5,53.5 73.5,57.5 73.5,61.5C 56.1667,61.5 38.8333,61.5 21.5,61.5C 21.5,57.5 21.5,53.5 21.5,49.5 Z"/></g>
</svg>
