<?xml version="1.0" encoding="UTF-8"?>
<!DOCTYPE svg PUBLIC "-//W3C//DTD SVG 1.1//EN" "http://www.w3.org/Graphics/SVG/1.1/DTD/svg11.dtd">
<svg xmlns="http://www.w3.org/2000/svg" version="1.1" width="48px" height="48px" style="shape-rendering:geometricPrecision; text-rendering:geometricPrecision; image-rendering:optimizeQuality; fill-rule:evenodd; clip-rule:evenodd" xmlns:xlink="http://www.w3.org/1999/xlink">
<g><path style="opacity:0.957" fill="#394850" d="M 16.5,3.5 C 36.6499,1.48275 45.4833,10.4828 43,30.5C 37.6574,41.7523 28.8241,45.9189 16.5,43C 5.24773,37.6574 1.08107,28.8241 4,16.5C 6.35314,10.3154 10.5198,5.98203 16.5,3.5 Z"/></g>
<g><path style="opacity:1" fill="#f6b20f" d="M 28.5,7.5 C 28.2503,9.67396 27.2503,11.3406 25.5,12.5C 24.1667,12.5 22.8333,12.5 21.5,12.5C 19.7497,11.3406 18.7497,9.67396 18.5,7.5C 21.8333,6.16667 25.1667,6.16667 28.5,7.5 Z"/></g>
<g><path style="opacity:1" fill="#f84a0b" d="M 15.5,8.5 C 17.047,9.76815 18.047,11.4348 18.5,13.5C 17.3065,14.2719 16.3065,15.2719 15.5,16.5C 13.2972,16.3964 11.2972,15.7298 9.5,14.5C 10.4777,11.5222 12.4777,9.52221 15.5,8.5 Z"/></g>
<g><path style="opacity:1" fill="#cec2af" d="M 15.5,8.5 C 16.209,7.59603 17.209,7.26269 18.5,7.5C 18.7497,9.67396 19.7497,11.3406 21.5,12.5C 20.791,13.404 19.791,13.7373 18.5,13.5C 18.047,11.4348 17.047,9.76815 15.5,8.5 Z"/></g>
<g><path style="opacity:1" fill="#c9d0c5" d="M 28.5,7.5 C 29.4916,7.32842 30.1583,7.66175 30.5,8.5C 29.8333,10.1667 29.1667,11.8333 28.5,13.5C 27.209,13.7373 26.209,13.404 25.5,12.5C 27.2503,11.3406 28.2503,9.67396 28.5,7.5 Z"/></g>
<g><path style="opacity:1" fill="#66b76b" d="M 30.5,8.5 C 33.747,9.41226 36.0803,11.4123 37.5,14.5C 35.9505,15.4408 34.2838,16.1075 32.5,16.5C 31.1283,15.4884 29.795,14.4884 28.5,13.5C 29.1667,11.8333 29.8333,10.1667 30.5,8.5 Z"/></g>
<g><path style="opacity:1" fill="#c5beb9" d="M 9.5,14.5 C 11.2972,15.7298 13.2972,16.3964 15.5,16.5C 15.1344,17.6946 14.301,18.3613 13,18.5C 11.3745,17.7113 9.87446,16.7113 8.5,15.5C 8.62358,14.8933 8.95691,14.56 9.5,14.5 Z"/></g>
<g><path style="opacity:1" fill="#b8c7c5" d="M 37.5,14.5 C 38.0431,14.56 38.3764,14.8933 38.5,15.5C 37.1255,16.7113 35.6255,17.7113 34,18.5C 32.9701,18.1639 32.4701,17.4972 32.5,16.5C 34.2838,16.1075 35.9505,15.4408 37.5,14.5 Z"/></g>
<g><path style="opacity:1" fill="#adb8bd" d="M 7.5,22.5 C 9.28801,22.2148 10.9547,22.5481 12.5,23.5C 11.624,24.2508 10.624,24.7508 9.5,25C 12.028,26.0174 12.028,27.1841 9.5,28.5C 13.1097,30.7124 12.443,31.7124 7.5,31.5C 7.5,28.5 7.5,25.5 7.5,22.5 Z"/></g>
<g><path style="opacity:1" fill="#bbc5c9" d="M 35.5,22.5 C 37.1992,22.3398 38.8659,22.5065 40.5,23C 39.552,23.4828 38.552,23.6495 37.5,23.5C 37.3601,25.1238 38.0267,26.2904 39.5,27C 38.1414,28.2045 37.1414,29.7045 36.5,31.5C 35.5159,28.5719 35.1826,25.5719 35.5,22.5 Z"/></g>
<g><path style="opacity:1" fill="#e83f0c" d="M 29.5,21.5 C 30.3764,21.3691 31.0431,21.7025 31.5,22.5C 28.5239,25.6296 26.6905,29.2963 26,33.5C 21.6667,35.5 20,34.1667 21,29.5C 24.9652,28.0348 27.7985,25.3681 29.5,21.5 Z"/></g>
</svg>
