<?xml version="1.0" encoding="UTF-8"?>
<!DOCTYPE svg PUBLIC "-//W3C//DTD SVG 1.1//EN" "http://www.w3.org/Graphics/SVG/1.1/DTD/svg11.dtd">
<svg xmlns="http://www.w3.org/2000/svg" version="1.1" width="96px" height="96px" style="shape-rendering:geometricPrecision; text-rendering:geometricPrecision; image-rendering:optimizeQuality; fill-rule:evenodd; clip-rule:evenodd" xmlns:xlink="http://www.w3.org/1999/xlink">
<g><path style="opacity:0.989" fill="#8fa3ad" d="M 89.5,29.5 C 85.4862,29.6655 81.4862,29.4988 77.5,29C 75.147,25.6513 72.4804,22.6513 69.5,20C 54.8333,19.3333 40.1667,19.3333 25.5,20C 22.5196,22.6513 19.853,25.6513 17.5,29C 13.5138,29.4988 9.51383,29.6655 5.5,29.5C 5.5,27.5 5.5,25.5 5.5,23.5C 8.1873,23.6641 10.854,23.4974 13.5,23C 15.8333,19.3333 18.8333,16.3333 22.5,14C 39.1667,13.3333 55.8333,13.3333 72.5,14C 76.1667,16.3333 79.1667,19.3333 81.5,23C 84.146,23.4974 86.8127,23.6641 89.5,23.5C 89.5,25.5 89.5,27.5 89.5,29.5 Z"/></g>
<g><path style="opacity:1" fill="#465a63" d="M 89.5,29.5 C 89.5,31.5 89.5,33.5 89.5,35.5C 85.4862,35.3345 81.4862,35.5012 77.5,36C 76.695,37.1127 76.0283,38.2794 75.5,39.5C 73.8427,40.5755 72.0093,41.2421 70,41.5C 66.3096,39.381 62.3096,38.0476 58,37.5C 54.2183,38.1428 50.7183,39.4761 47.5,41.5C 44.0113,39.2811 40.178,37.9477 36,37.5C 32.0315,38.3988 28.1981,39.7321 24.5,41.5C 22.6998,41.0976 21.0332,40.4309 19.5,39.5C 18.9717,38.2794 18.305,37.1127 17.5,36C 13.5138,35.5012 9.51383,35.3345 5.5,35.5C 5.5,33.5 5.5,31.5 5.5,29.5C 9.51383,29.6655 13.5138,29.4988 17.5,29C 19.853,25.6513 22.5196,22.6513 25.5,20C 40.1667,19.3333 54.8333,19.3333 69.5,20C 72.4804,22.6513 75.147,25.6513 77.5,29C 81.4862,29.4988 85.4862,29.6655 89.5,29.5 Z"/></g>
<g><path style="opacity:0.978" fill="#91a4ab" d="M 5.5,35.5 C 9.51383,35.3345 13.5138,35.5012 17.5,36C 18.305,37.1127 18.9717,38.2794 19.5,39.5C 21.3421,45.5255 23.6754,51.3589 26.5,57C 33.1809,60.3936 40.1809,62.8936 47.5,64.5C 54.6946,62.5705 61.6946,60.0705 68.5,57C 71.3246,51.3589 73.6579,45.5255 75.5,39.5C 76.0283,38.2794 76.695,37.1127 77.5,36C 81.4862,35.5012 85.4862,35.3345 89.5,35.5C 89.5,37.5 89.5,39.5 89.5,41.5C 86.8806,41.2317 84.3806,41.565 82,42.5C 79.6667,48.1667 77.3333,53.8333 75,59.5C 73.8333,60.6667 72.6667,61.8333 71.5,63C 63.9253,66.1354 56.2586,68.9687 48.5,71.5C 47.8333,71.5 47.1667,71.5 46.5,71.5C 38.7414,68.9687 31.0747,66.1354 23.5,63C 18.4296,56.6898 15.0963,49.5232 13.5,41.5C 10.8333,41.5 8.16667,41.5 5.5,41.5C 5.5,39.5 5.5,37.5 5.5,35.5 Z"/></g>
<g><path style="opacity:1" fill="#fcaa05" d="M 75.5,39.5 C 73.6579,45.5255 71.3246,51.3589 68.5,57C 61.6946,60.0705 54.6946,62.5705 47.5,64.5C 40.1809,62.8936 33.1809,60.3936 26.5,57C 23.6754,51.3589 21.3421,45.5255 19.5,39.5C 21.0332,40.4309 22.6998,41.0976 24.5,41.5C 28.1981,39.7321 32.0315,38.3988 36,37.5C 40.178,37.9477 44.0113,39.2811 47.5,41.5C 50.7183,39.4761 54.2183,38.1428 58,37.5C 62.3096,38.0476 66.3096,39.381 70,41.5C 72.0093,41.2421 73.8427,40.5755 75.5,39.5 Z"/></g>
<g><path style="opacity:0.922" fill="#ffab00" d="M 46.5,71.5 C 47.1667,71.5 47.8333,71.5 48.5,71.5C 52.4215,75.3431 54.7549,80.0097 55.5,85.5C 55.8333,91.1667 53.1667,93.8333 47.5,93.5C 40.269,92.7363 37.769,88.7363 40,81.5C 41.996,78.0142 44.1627,74.6809 46.5,71.5 Z"/></g>
</svg>
