<?xml version="1.0" encoding="UTF-8"?>
<!DOCTYPE svg PUBLIC "-//W3C//DTD SVG 1.1//EN" "http://www.w3.org/Graphics/SVG/1.1/DTD/svg11.dtd">
<svg xmlns="http://www.w3.org/2000/svg" version="1.1" width="96px" height="96px" style="shape-rendering:geometricPrecision; text-rendering:geometricPrecision; image-rendering:optimizeQuality; fill-rule:evenodd; clip-rule:evenodd" xmlns:xlink="http://www.w3.org/1999/xlink">
<g><path style="opacity:0.978" fill="#38474f" d="M 38.5,7.5 C 61.3294,4.54685 77.1628,13.5469 86,34.5C 91.7177,58.8973 83.2177,76.064 60.5,86C 36.1027,91.7177 18.936,83.2177 9,60.5C 3.42409,33.977 13.2574,16.3104 38.5,7.5 Z"/></g>
<g><path style="opacity:1" fill="#f9b20c" d="M 57.5,14.5 C 56.7676,18.6973 55.4342,22.6973 53.5,26.5C 49.4841,25.2575 45.4841,25.2575 41.5,26.5C 39.6035,22.7026 38.2702,18.7026 37.5,14.5C 44.1667,13.1667 50.8333,13.1667 57.5,14.5 Z"/></g>
<g><path style="opacity:1" fill="#cfccc4" d="M 37.5,14.5 C 38.2702,18.7026 39.6035,22.7026 41.5,26.5C 40.1667,27.1667 38.8333,27.8333 37.5,28.5C 36.1667,24.5 34.8333,20.5 33.5,16.5C 34.6715,15.6554 36.0048,14.9887 37.5,14.5 Z"/></g>
<g><path style="opacity:1" fill="#ccd3cd" d="M 57.5,14.5 C 58.8333,15.1667 60.1667,15.8333 61.5,16.5C 60.4422,20.2793 59.1089,23.9459 57.5,27.5C 56.0413,27.5674 54.7079,27.2341 53.5,26.5C 55.4342,22.6973 56.7676,18.6973 57.5,14.5 Z"/></g>
<g><path style="opacity:1" fill="#fb4305" d="M 33.5,16.5 C 34.8333,20.5 36.1667,24.5 37.5,28.5C 34.5691,30.0908 31.9024,32.0908 29.5,34.5C 25.7991,32.9884 22.4658,30.9884 19.5,28.5C 22.9279,23.11 27.5945,19.11 33.5,16.5 Z"/></g>
<g><path style="opacity:1" fill="#66b86b" d="M 61.5,16.5 C 67.126,19.4651 71.7927,23.4651 75.5,28.5C 72.5342,30.9884 69.2009,32.9884 65.5,34.5C 62.8333,32.1667 60.1667,29.8333 57.5,27.5C 59.1089,23.9459 60.4422,20.2793 61.5,16.5 Z"/></g>
<g><path style="opacity:1" fill="#c9cacb" d="M 19.5,28.5 C 22.4658,30.9884 25.7991,32.9884 29.5,34.5C 29.5824,36.2517 28.7491,37.2517 27,37.5C 22.9755,36.4183 19.8089,34.2516 17.5,31C 17.6387,29.699 18.3054,28.8656 19.5,28.5 Z"/></g>
<g><path style="opacity:1" fill="#c5d0d2" d="M 75.5,28.5 C 77.9834,30.3115 77.9834,32.1448 75.5,34C 73.0602,35.3034 70.5602,36.47 68,37.5C 66.6898,36.8699 65.8565,35.8699 65.5,34.5C 69.2009,32.9884 72.5342,30.9884 75.5,28.5 Z"/></g>
<g><path style="opacity:1" fill="#f43e05" d="M 60.5,42.5 C 62.3464,42.2222 63.6798,42.8888 64.5,44.5C 60.6667,49.5 56.8333,54.5 53,59.5C 54.6614,66.6741 51.8281,69.8408 44.5,69C 39.3953,62.1973 41.062,58.1973 49.5,57C 53.7668,52.5739 57.4335,47.7405 60.5,42.5 Z"/></g>
<g><path style="opacity:1" fill="#bbc5ca" d="M 14.5,45.5 C 18.1667,45.5 21.8333,45.5 25.5,45.5C 25.5,46.5 25.5,47.5 25.5,48.5C 23.1667,48.5 20.8333,48.5 18.5,48.5C 18.5,49.8333 18.5,51.1667 18.5,52.5C 20.5,52.5 22.5,52.5 24.5,52.5C 24.5,53.5 24.5,54.5 24.5,55.5C 22.5,55.5 20.5,55.5 18.5,55.5C 18.5,56.8333 18.5,58.1667 18.5,59.5C 20.8333,59.5 23.1667,59.5 25.5,59.5C 25.5,60.5 25.5,61.5 25.5,62.5C 21.8333,62.5 18.1667,62.5 14.5,62.5C 14.5,56.8333 14.5,51.1667 14.5,45.5 Z"/></g>
<g><path style="opacity:1" fill="#c7d0d5" d="M 71.5,45.5 C 74.8333,45.5 78.1667,45.5 81.5,45.5C 81.5,46.5 81.5,47.5 81.5,48.5C 79.1667,48.5 76.8333,48.5 74.5,48.5C 74.5,49.8333 74.5,51.1667 74.5,52.5C 76.5,52.5 78.5,52.5 80.5,52.5C 80.5,53.5 80.5,54.5 80.5,55.5C 78.5,55.5 76.5,55.5 74.5,55.5C 74.5,57.8333 74.5,60.1667 74.5,62.5C 73.5,62.5 72.5,62.5 71.5,62.5C 71.5,56.8333 71.5,51.1667 71.5,45.5 Z"/></g>
</svg>
