<?xml version="1.0" encoding="UTF-8"?>
<!DOCTYPE svg PUBLIC "-//W3C//DTD SVG 1.1//EN" "http://www.w3.org/Graphics/SVG/1.1/DTD/svg11.dtd">
<svg xmlns="http://www.w3.org/2000/svg" version="1.1" width="96px" height="96px" style="shape-rendering:geometricPrecision; text-rendering:geometricPrecision; image-rendering:optimizeQuality; fill-rule:evenodd; clip-rule:evenodd" xmlns:xlink="http://www.w3.org/1999/xlink">
<g><path style="opacity:0.933" fill="#d33433" d="M 87.5,40.5 C 74.617,33.1395 61.4503,26.1395 48,19.5C 34.0617,25.8841 20.5617,32.8841 7.5,40.5C 6.41683,40.5394 5.41683,40.8728 4.5,41.5C 3.16667,38.5 3.16667,35.5 4.5,32.5C 18.7158,25.2253 33.0492,18.2253 47.5,11.5C 61.9508,18.2253 76.2842,25.2253 90.5,32.5C 91.8333,35.5 91.8333,38.5 90.5,41.5C 89.5832,40.8728 88.5832,40.5394 87.5,40.5 Z"/></g>
<g><path style="opacity:1" fill="#c7cae8" d="M 87.5,40.5 C 87.5,41.5 87.5,42.5 87.5,43.5C 74.1879,37.1778 60.8545,30.8445 47.5,24.5C 34.15,30.8421 20.8167,37.1754 7.5,43.5C 7.5,42.5 7.5,41.5 7.5,40.5C 20.5617,32.8841 34.0617,25.8841 48,19.5C 61.4503,26.1395 74.617,33.1395 87.5,40.5 Z"/></g>
<g><path style="opacity:1" fill="#e7e9f5" d="M 87.5,43.5 C 87.5,53.5 87.5,63.5 87.5,73.5C 84.1667,73.5 80.8333,73.5 77.5,73.5C 77.5,65.5 77.5,57.5 77.5,49.5C 77.5,48.1667 77.5,46.8333 77.5,45.5C 57.5,45.5 37.5,45.5 17.5,45.5C 17.5,46.8333 17.5,48.1667 17.5,49.5C 17.5,57.5 17.5,65.5 17.5,73.5C 14.1667,73.5 10.8333,73.5 7.5,73.5C 7.5,63.5 7.5,53.5 7.5,43.5C 20.8167,37.1754 34.15,30.8421 47.5,24.5C 60.8545,30.8445 74.1879,37.1778 87.5,43.5 Z"/></g>
<g><path style="opacity:1" fill="#01569b" d="M 41.5,33.5 C 45.5,33.5 49.5,33.5 53.5,33.5C 53.5,36.1667 53.5,38.8333 53.5,41.5C 49.5,41.5 45.5,41.5 41.5,41.5C 41.5,38.8333 41.5,36.1667 41.5,33.5 Z"/></g>
<g><path style="opacity:1" fill="#536e79" d="M 77.5,49.5 C 57.5,49.5 37.5,49.5 17.5,49.5C 17.5,48.1667 17.5,46.8333 17.5,45.5C 37.5,45.5 57.5,45.5 77.5,45.5C 77.5,46.8333 77.5,48.1667 77.5,49.5 Z"/></g>
<g><path style="opacity:1" fill="#263237" d="M 17.5,49.5 C 37.5,49.5 57.5,49.5 77.5,49.5C 77.5,57.5 77.5,65.5 77.5,73.5C 77.5,76.8333 77.5,80.1667 77.5,83.5C 57.5,83.5 37.5,83.5 17.5,83.5C 17.5,80.1667 17.5,76.8333 17.5,73.5C 17.5,65.5 17.5,57.5 17.5,49.5 Z"/></g>
<g><path style="opacity:1" fill="#d84136" d="M 39.5,56.5 C 45.0001,55.8314 47.1667,58.1647 46,63.5C 39.7366,68.2696 37.0699,66.6029 38,58.5C 38.7172,57.9558 39.2172,57.2891 39.5,56.5 Z"/></g>
<g><path style="opacity:1" fill="#2d3237" d="M 40.5,58.5 C 41.5,58.5 42.5,58.5 43.5,58.5C 43.5,60.1667 43.5,61.8333 43.5,63.5C 42.5,63.5 41.5,63.5 40.5,63.5C 40.5,61.8333 40.5,60.1667 40.5,58.5 Z"/></g>
<g><path style="opacity:1" fill="#dd4136" d="M 51.5,58.5 C 52.3764,58.3691 53.0431,58.7025 53.5,59.5C 50.0825,65.3369 46.4158,71.0036 42.5,76.5C 41.4173,75.635 41.2506,74.635 42,73.5C 45.1774,68.4718 48.3441,63.4718 51.5,58.5 Z"/></g>
<g><path style="opacity:1" fill="#d34136" d="M 50.5,68.5 C 57.6275,68.7063 59.2942,71.873 55.5,78C 49.4983,78.9931 47.3317,76.4931 49,70.5C 49.7172,69.9558 50.2172,69.2891 50.5,68.5 Z"/></g>
<g><path style="opacity:1" fill="#2e3237" d="M 51.5,71.5 C 52.5,71.5 53.5,71.5 54.5,71.5C 54.5,73.1667 54.5,74.8333 54.5,76.5C 53.5,76.5 52.5,76.5 51.5,76.5C 51.5,74.8333 51.5,73.1667 51.5,71.5 Z"/></g>
<g><path style="opacity:1" fill="#c4cae8" d="M 7.5,73.5 C 10.8333,73.5 14.1667,73.5 17.5,73.5C 17.5,76.8333 17.5,80.1667 17.5,83.5C 14.1667,83.5 10.8333,83.5 7.5,83.5C 7.5,80.1667 7.5,76.8333 7.5,73.5 Z"/></g>
<g><path style="opacity:1" fill="#c4cae8" d="M 77.5,73.5 C 80.8333,73.5 84.1667,73.5 87.5,73.5C 87.5,76.8333 87.5,80.1667 87.5,83.5C 84.1667,83.5 80.8333,83.5 77.5,83.5C 77.5,80.1667 77.5,76.8333 77.5,73.5 Z"/></g>
</svg>
