<?xml version="1.0" encoding="UTF-8"?>
<!DOCTYPE svg PUBLIC "-//W3C//DTD SVG 1.1//EN" "http://www.w3.org/Graphics/SVG/1.1/DTD/svg11.dtd">
<svg xmlns="http://www.w3.org/2000/svg" version="1.1" width="96px" height="96px" style="shape-rendering:geometricPrecision; text-rendering:geometricPrecision; image-rendering:optimizeQuality; fill-rule:evenodd; clip-rule:evenodd" xmlns:xlink="http://www.w3.org/1999/xlink">
<g><path style="opacity:0.992" fill="#2196f3" d="M 38.5,7.5 C 61.3294,4.54685 77.1628,13.5469 86,34.5C 91.7177,58.8973 83.2177,76.064 60.5,86C 36.1027,91.7177 18.936,83.2177 9,60.5C 3.42409,33.977 13.2574,16.3104 38.5,7.5 Z"/></g>
<g><path style="opacity:1" fill="#f4f9fe" d="M 45.5,27.5 C 50.6646,27.1619 52.8313,29.4953 52,34.5C 49,38.5 46,38.5 43,34.5C 42.162,31.5193 42.9953,29.1859 45.5,27.5 Z"/></g>
<g><path style="opacity:1" fill="#fefffe" d="M 43.5,43.5 C 46.1667,43.5 48.8333,43.5 51.5,43.5C 51.5,50.8333 51.5,58.1667 51.5,65.5C 48.8333,65.5 46.1667,65.5 43.5,65.5C 43.5,58.1667 43.5,50.8333 43.5,43.5 Z"/></g>
</svg>
