<?xml version="1.0" encoding="UTF-8"?>
<!DOCTYPE svg PUBLIC "-//W3C//DTD SVG 1.1//EN" "http://www.w3.org/Graphics/SVG/1.1/DTD/svg11.dtd">
<svg xmlns="http://www.w3.org/2000/svg" version="1.1" width="96px" height="96px" style="shape-rendering:geometricPrecision; text-rendering:geometricPrecision; image-rendering:optimizeQuality; fill-rule:evenodd; clip-rule:evenodd" xmlns:xlink="http://www.w3.org/1999/xlink">
<g><path style="opacity:0.998" fill="#90c9f8" d="M 15.5,5.5 C 30.5037,5.33342 45.5037,5.50008 60.5,6C 66.6667,12.1667 72.8333,18.3333 79,24.5C 79.5,46.1641 79.6666,67.8308 79.5,89.5C 58.1667,89.5 36.8333,89.5 15.5,89.5C 15.5,61.5 15.5,33.5 15.5,5.5 Z"/></g>
<g><path style="opacity:1" fill="#ddf2fd" d="M 57.5,8.5 C 63.9648,14.4639 70.2981,20.6306 76.5,27C 70.1754,27.4995 63.8421,27.6662 57.5,27.5C 57.5,21.1667 57.5,14.8333 57.5,8.5 Z"/></g>
<g><path style="opacity:1" fill="#1975d2" d="M 31.5,41.5 C 42.8333,41.5 54.1667,41.5 65.5,41.5C 65.5,42.8333 65.5,44.1667 65.5,45.5C 54.1667,45.5 42.8333,45.5 31.5,45.5C 31.5,44.1667 31.5,42.8333 31.5,41.5 Z"/></g>
<g><path style="opacity:1" fill="#1975d2" d="M 31.5,49.5 C 42.8333,49.5 54.1667,49.5 65.5,49.5C 65.5,50.8333 65.5,52.1667 65.5,53.5C 54.1667,53.5 42.8333,53.5 31.5,53.5C 31.5,52.1667 31.5,50.8333 31.5,49.5 Z"/></g>
<g><path style="opacity:1" fill="#1975d2" d="M 31.5,57.5 C 36.1667,57.5 40.8333,57.5 45.5,57.5C 45.5,58.8333 45.5,60.1667 45.5,61.5C 40.8333,61.5 36.1667,61.5 31.5,61.5C 31.5,60.1667 31.5,58.8333 31.5,57.5 Z"/></g>
<g><path style="opacity:1" fill="#d13333" d="M 51.5,58.5 C 54.0751,59.7284 56.4084,61.3951 58.5,63.5C 60.3159,62.1851 61.9825,60.6851 63.5,59C 65.6667,58.5 66.5,59.3333 66,61.5C 64.3149,63.0175 62.8149,64.6841 61.5,66.5C 62.8149,68.3159 64.3149,69.9825 66,71.5C 66.5,73.6667 65.6667,74.5 63.5,74C 61.9825,72.3149 60.3159,70.8149 58.5,69.5C 56.6841,70.8149 55.0175,72.3149 53.5,74C 51.3333,74.5 50.5,73.6667 51,71.5C 52.6851,69.9825 54.1851,68.3159 55.5,66.5C 54.1851,64.6841 52.6851,63.0175 51,61.5C 50.5304,60.4232 50.6971,59.4232 51.5,58.5 Z"/></g>
<g><path style="opacity:1" fill="#1975d2" d="M 31.5,65.5 C 36.1667,65.5 40.8333,65.5 45.5,65.5C 45.5,66.8333 45.5,68.1667 45.5,69.5C 40.8333,69.5 36.1667,69.5 31.5,69.5C 31.5,68.1667 31.5,66.8333 31.5,65.5 Z"/></g>
</svg>
