<?xml version="1.0" encoding="UTF-8"?>
<!DOCTYPE svg PUBLIC "-//W3C//DTD SVG 1.1//EN" "http://www.w3.org/Graphics/SVG/1.1/DTD/svg11.dtd">
<svg xmlns="http://www.w3.org/2000/svg" version="1.1" width="96px" height="96px" style="shape-rendering:geometricPrecision; text-rendering:geometricPrecision; image-rendering:optimizeQuality; fill-rule:evenodd; clip-rule:evenodd" xmlns:xlink="http://www.w3.org/1999/xlink">
<g><path style="opacity:0.962" fill="#dc8708" d="M 51.5,15.5 C 48.8333,15.5 46.1667,15.5 43.5,15.5C 43.062,9.68671 45.562,8.02004 51,10.5C 51.4935,12.1341 51.6602,13.8008 51.5,15.5 Z"/></g>
<g><path style="opacity:0.991" fill="#ffc108" d="M 43.5,15.5 C 46.1667,15.5 48.8333,15.5 51.5,15.5C 57.9139,16.741 62.4139,20.4077 65,26.5C 65.1378,32.5813 65.8044,38.5813 67,44.5C 70.332,49.3266 73.832,53.9933 77.5,58.5C 57.489,65.1386 37.489,65.1386 17.5,58.5C 21.168,53.9933 24.668,49.3266 28,44.5C 29.1956,38.5813 29.8622,32.5813 30,26.5C 32.5861,20.4077 37.0861,16.741 43.5,15.5 Z"/></g>
<g><path style="opacity:1" fill="#ffde7b" d="M 17.5,58.5 C 37.489,65.1386 57.489,65.1386 77.5,58.5C 78.9063,58.9731 79.573,59.9731 79.5,61.5C 58.1673,69.4734 36.834,69.4734 15.5,61.5C 15.427,59.9731 16.0937,58.9731 17.5,58.5 Z"/></g>
<g><path style="opacity:0.968" fill="#fec10b" d="M 15.5,61.5 C 36.834,69.4734 58.1673,69.4734 79.5,61.5C 82.1402,63.8794 82.1402,66.3794 79.5,69C 71.814,72.1146 63.814,73.6146 55.5,73.5C 50.1667,73.5 44.8333,73.5 39.5,73.5C 31.9782,73.5241 24.6448,72.3575 17.5,70C 13.1731,67.8544 12.5064,65.0211 15.5,61.5 Z"/></g>
<g><path style="opacity:1" fill="#bc6f09" d="M 39.5,73.5 C 44.8333,73.5 50.1667,73.5 55.5,73.5C 55.5,74.8333 55.5,76.1667 55.5,77.5C 50.1667,77.5 44.8333,77.5 39.5,77.5C 39.5,76.1667 39.5,74.8333 39.5,73.5 Z"/></g>
<g><path style="opacity:0.938" fill="#da8408" d="M 39.5,77.5 C 44.8333,77.5 50.1667,77.5 55.5,77.5C 54.734,81.895 52.0673,83.895 47.5,83.5C 42.9327,83.895 40.266,81.895 39.5,77.5 Z"/></g>
</svg>
