<?xml version="1.0" encoding="UTF-8"?>
<!DOCTYPE svg PUBLIC "-//W3C//DTD SVG 1.1//EN" "http://www.w3.org/Graphics/SVG/1.1/DTD/svg11.dtd">
<svg xmlns="http://www.w3.org/2000/svg" version="1.1" width="96px" height="96px" style="shape-rendering:geometricPrecision; text-rendering:geometricPrecision; image-rendering:optimizeQuality; fill-rule:evenodd; clip-rule:evenodd" xmlns:xlink="http://www.w3.org/1999/xlink">
<g><path style="opacity:0.991" fill="#424242" d="M 79.5,33.5 C 58.1667,33.5 36.8333,33.5 15.5,33.5C 15.3337,26.1591 15.5003,18.8258 16,11.5C 16.3742,10.5838 16.8742,9.75044 17.5,9C 27.4052,7.85683 37.4052,7.35683 47.5,7.5C 57.5948,7.35683 67.5948,7.85683 77.5,9C 78.1258,9.75044 78.6258,10.5838 79,11.5C 79.4997,18.8258 79.6663,26.1591 79.5,33.5 Z"/></g>
<g><path style="opacity:1" fill="#9bcb64" d="M 22.5,13.5 C 39.17,13.3334 55.8367,13.5001 72.5,14C 73.6295,18.0785 73.7961,22.2452 73,26.5C 56.2406,27.6579 39.4073,27.8245 22.5,27C 21.1943,22.5006 21.1943,18.0006 22.5,13.5 Z"/></g>
<g><path style="opacity:1" fill="#33691d" d="M 57.5,19.5 C 58.8333,19.5 60.1667,19.5 61.5,19.5C 61.5,20.8333 61.5,22.1667 61.5,23.5C 60.1667,23.5 58.8333,23.5 57.5,23.5C 57.5,22.1667 57.5,20.8333 57.5,19.5 Z"/></g>
<g><path style="opacity:1" fill="#33691d" d="M 65.5,19.5 C 66.8333,19.5 68.1667,19.5 69.5,19.5C 69.5,20.8333 69.5,22.1667 69.5,23.5C 68.1667,23.5 66.8333,23.5 65.5,23.5C 65.5,22.1667 65.5,20.8333 65.5,19.5 Z"/></g>
<g><path style="opacity:0.998" fill="#626262" d="M 15.5,33.5 C 36.8333,33.5 58.1667,33.5 79.5,33.5C 79.5,40.8333 79.5,48.1667 79.5,55.5C 77.5,55.5 75.5,55.5 73.5,55.5C 73.7394,53.5328 73.4061,51.6995 72.5,50C 69.8333,49.3333 67.1667,49.3333 64.5,50C 63.9032,51.0617 63.5698,52.2284 63.5,53.5C 63.3402,55.3545 64.0069,56.6879 65.5,57.5C 63.5398,59.1563 61.5398,60.823 59.5,62.5C 56.332,61.208 53.1653,61.208 50,62.5C 48.1594,68.4938 50.3261,70.8271 56.5,69.5C 55.7659,70.7079 55.4326,72.0413 55.5,73.5C 49.6867,73.062 48.02,75.562 50.5,81C 52.4727,81.4955 54.4727,81.6621 56.5,81.5C 56.9752,83.7837 57.9752,85.7837 59.5,87.5C 46.1625,87.6666 32.8292,87.4999 19.5,87C 18.5838,86.6258 17.7504,86.1258 17,85.5C 15.528,68.261 15.028,50.9276 15.5,33.5 Z"/></g>
<g><path style="opacity:1" fill="#dedede" d="M 22.5,37.5 C 25.1873,37.3359 27.854,37.5026 30.5,38C 31.5914,40.0639 31.7581,42.2305 31,44.5C 23.1136,47.6516 20.2802,45.3183 22.5,37.5 Z"/></g>
<g><path style="opacity:1" fill="#dedede" d="M 36.5,37.5 C 39.1873,37.3359 41.854,37.5026 44.5,38C 45.5914,40.0639 45.7581,42.2305 45,44.5C 37.1136,47.6516 34.2802,45.3183 36.5,37.5 Z"/></g>
<g><path style="opacity:1" fill="#dedede" d="M 50.5,37.5 C 53.1873,37.3359 55.854,37.5026 58.5,38C 59.5914,40.0639 59.7581,42.2305 59,44.5C 51.1136,47.6516 48.2802,45.3183 50.5,37.5 Z"/></g>
<g><path style="opacity:1" fill="#fd5252" d="M 64.5,37.5 C 67.1873,37.3359 69.854,37.5026 72.5,38C 73.5914,40.0639 73.7581,42.2305 73,44.5C 65.1136,47.6516 62.2802,45.3183 64.5,37.5 Z"/></g>
<g><path style="opacity:1" fill="#dedede" d="M 22.5,49.5 C 25.1873,49.3359 27.854,49.5026 30.5,50C 31.5914,52.0639 31.7581,54.2305 31,56.5C 23.1136,59.6516 20.2802,57.3183 22.5,49.5 Z"/></g>
<g><path style="opacity:1" fill="#dedede" d="M 36.5,49.5 C 39.1873,49.3359 41.854,49.5026 44.5,50C 45.5914,52.0639 45.7581,54.2305 45,56.5C 37.1136,59.6516 34.2802,57.3183 36.5,49.5 Z"/></g>
<g><path style="opacity:1" fill="#dedede" d="M 50.5,49.5 C 53.1873,49.3359 55.854,49.5026 58.5,50C 59.5914,52.0639 59.7581,54.2305 59,56.5C 51.1136,59.6516 48.2802,57.3183 50.5,49.5 Z"/></g>
<g><path style="opacity:1" fill="#bbbcbb" d="M 73.5,55.5 C 70.779,55.9628 68.1123,56.6295 65.5,57.5C 64.0069,56.6879 63.3402,55.3545 63.5,53.5C 63.5698,52.2284 63.9032,51.0617 64.5,50C 67.1667,49.3333 69.8333,49.3333 72.5,50C 73.4061,51.6995 73.7394,53.5328 73.5,55.5 Z"/></g>
<g><path style="opacity:0.983" fill="#4eaf52" d="M 73.5,55.5 C 75.5,55.5 77.5,55.5 79.5,55.5C 87.1937,57.0034 92.527,61.3368 95.5,68.5C 95.5,73.1667 95.5,77.8333 95.5,82.5C 94.0242,84.7686 92.5242,87.1019 91,89.5C 88.2639,91.7519 85.4305,93.7519 82.5,95.5C 77.8333,95.5 73.1667,95.5 68.5,95.5C 66.2314,94.0242 63.8981,92.5242 61.5,91C 60.1772,90.1841 59.5106,89.0174 59.5,87.5C 57.9752,85.7837 56.9752,83.7837 56.5,81.5C 55.612,78.9455 55.2786,76.2788 55.5,73.5C 55.4326,72.0413 55.7659,70.7079 56.5,69.5C 57.242,67.0202 58.242,64.6869 59.5,62.5C 61.5398,60.823 63.5398,59.1563 65.5,57.5C 68.1123,56.6295 70.779,55.9628 73.5,55.5 Z"/></g>
<g><path style="opacity:1" fill="#dedede" d="M 22.5,61.5 C 25.1873,61.3359 27.854,61.5026 30.5,62C 31.5914,64.0639 31.7581,66.2305 31,68.5C 23.1136,71.6516 20.2802,69.3183 22.5,61.5 Z"/></g>
<g><path style="opacity:1" fill="#dedede" d="M 36.5,61.5 C 39.1873,61.3359 41.854,61.5026 44.5,62C 45.5914,64.0639 45.7581,66.2305 45,68.5C 37.1136,71.6516 34.2802,69.3183 36.5,61.5 Z"/></g>
<g><path style="opacity:1" fill="#dddedd" d="M 59.5,62.5 C 58.242,64.6869 57.242,67.0202 56.5,69.5C 50.3261,70.8271 48.1594,68.4938 50,62.5C 53.1653,61.208 56.332,61.208 59.5,62.5 Z"/></g>
<g><path style="opacity:1" fill="#dcefdd" d="M 74.5,62.5 C 75.5,62.5 76.5,62.5 77.5,62.5C 78.1949,64.9781 79.6949,66.9781 82,68.5C 82.4828,69.448 82.6495,70.448 82.5,71.5C 79.8609,71.4292 77.6942,70.4292 76,68.5C 73.8125,69.0593 73.1458,70.3927 74,72.5C 76.087,73.7938 78.2537,74.9605 80.5,76C 83.8811,81.373 82.5477,84.5397 76.5,85.5C 75.8333,89.5 75.1667,89.5 74.5,85.5C 70.8333,85.1667 68.8333,83.1667 68.5,79.5C 71.2393,79.7066 73.5726,80.7066 75.5,82.5C 77.0004,82.5472 78.0004,81.8805 78.5,80.5C 75.7984,78.0578 72.965,75.7244 70,73.5C 68.7782,69.7432 69.9449,67.0765 73.5,65.5C 74.3857,64.675 74.719,63.675 74.5,62.5 Z"/></g>
<g><path style="opacity:1" fill="#dedede" d="M 22.5,73.5 C 25.1873,73.3359 27.854,73.5026 30.5,74C 31.5914,76.0639 31.7581,78.2305 31,80.5C 23.1136,83.6516 20.2802,81.3183 22.5,73.5 Z"/></g>
<g><path style="opacity:1" fill="#dedede" d="M 36.5,73.5 C 39.1873,73.3359 41.854,73.5026 44.5,74C 45.5914,76.0639 45.7581,78.2305 45,80.5C 37.1136,83.6516 34.2802,81.3183 36.5,73.5 Z"/></g>
<g><path style="opacity:1" fill="#dedede" d="M 55.5,73.5 C 55.2786,76.2788 55.612,78.9455 56.5,81.5C 54.4727,81.6621 52.4727,81.4955 50.5,81C 48.02,75.562 49.6867,73.062 55.5,73.5 Z"/></g>
</svg>
