<?xml version="1.0" encoding="UTF-8"?>
<!DOCTYPE svg PUBLIC "-//W3C//DTD SVG 1.1//EN" "http://www.w3.org/Graphics/SVG/1.1/DTD/svg11.dtd">
<svg xmlns="http://www.w3.org/2000/svg" version="1.1" width="48px" height="48px" style="shape-rendering:geometricPrecision; text-rendering:geometricPrecision; image-rendering:optimizeQuality; fill-rule:evenodd; clip-rule:evenodd" xmlns:xlink="http://www.w3.org/1999/xlink">
<g><path style="opacity:0.906" fill="#7cb242" d="M 24.5,11.5 C 23.8333,11.5 23.1667,11.5 22.5,11.5C 20.1104,11.3152 19.1104,9.98182 19.5,7.5C 19.1667,4.5 20.5,3.16667 23.5,3.5C 26.5,3.16667 27.8333,4.5 27.5,7.5C 27.8896,9.98182 26.8896,11.3152 24.5,11.5 Z"/></g>
<g><path style="opacity:0.911" fill="#7cb242" d="M 12.5,13.5 C 11.8902,14.391 11.5569,15.391 11.5,16.5C 5.3261,17.8271 3.15944,15.4938 5,9.5C 7.06385,8.40857 9.23052,8.2419 11.5,9C 12.3802,10.3561 12.7135,11.8561 12.5,13.5 Z"/></g>
<g><path style="opacity:0.926" fill="#7cb242" d="M 35.5,16.5 C 35.4431,15.391 35.1098,14.391 34.5,13.5C 34.2865,11.8561 34.6198,10.3561 35.5,9C 41.6667,7.16667 43.8333,9.33333 42,15.5C 39.9592,16.4231 37.7925,16.7564 35.5,16.5 Z"/></g>
<g><path style="opacity:1" fill="#c4e1a4" d="M 22.5,11.5 C 23.1667,11.5 23.8333,11.5 24.5,11.5C 24.5,12.8333 24.5,14.1667 24.5,15.5C 23.8333,15.5 23.1667,15.5 22.5,15.5C 22.5,14.1667 22.5,12.8333 22.5,11.5 Z"/></g>
<g><path style="opacity:0.62" fill="#c4dfa1" d="M 12.5,13.5 C 14.153,13.6596 15.4863,14.3263 16.5,15.5C 16.1667,16.1667 15.8333,16.8333 15.5,17.5C 14.1667,17.1667 12.8333,16.8333 11.5,16.5C 11.5569,15.391 11.8902,14.391 12.5,13.5 Z"/></g>
<g><path style="opacity:0.707" fill="#c4dea0" d="M 34.5,13.5 C 35.1098,14.391 35.4431,15.391 35.5,16.5C 34.1667,16.8333 32.8333,17.1667 31.5,17.5C 31.1667,16.8333 30.8333,16.1667 30.5,15.5C 31.5137,14.3263 32.847,13.6596 34.5,13.5 Z"/></g>
<g><path style="opacity:0.999" fill="#fe9800" d="M 16.5,15.5 C 18.5,15.5 20.5,15.5 22.5,15.5C 23.1667,15.5 23.8333,15.5 24.5,15.5C 26.5,15.5 28.5,15.5 30.5,15.5C 30.8333,16.1667 31.1667,16.8333 31.5,17.5C 31.5,21.5 31.5,25.5 31.5,29.5C 31.1667,30.1667 30.8333,30.8333 30.5,31.5C 28.5,31.5 26.5,31.5 24.5,31.5C 23.8333,31.5 23.1667,31.5 22.5,31.5C 20.5,31.5 18.5,31.5 16.5,31.5C 16.1667,30.8333 15.8333,30.1667 15.5,29.5C 15.5,25.5 15.5,21.5 15.5,17.5C 15.8333,16.8333 16.1667,16.1667 16.5,15.5 Z"/></g>
<g><path style="opacity:1" fill="#915500" d="M 20.5,18.5 C 22.604,18.2011 24.604,18.5344 26.5,19.5C 25.5,19.8333 24.5,20.1667 23.5,20.5C 21.9704,20.3601 20.9704,19.6935 20.5,18.5 Z"/></g>
<g><path style="opacity:0.652" fill="#c5de9f" d="M 31.5,29.5 C 32.8333,29.8333 34.1667,30.1667 35.5,30.5C 35.4431,31.609 35.1098,32.609 34.5,33.5C 32.847,33.3404 31.5137,32.6737 30.5,31.5C 30.8333,30.8333 31.1667,30.1667 31.5,29.5 Z"/></g>
<g><path style="opacity:0.911" fill="#7cb242" d="M 11.5,30.5 C 11.5569,31.609 11.8902,32.609 12.5,33.5C 12.7135,35.1439 12.3802,36.6439 11.5,38C 5.33333,39.8333 3.16667,37.6667 5,31.5C 7.04083,30.5769 9.2075,30.2436 11.5,30.5 Z"/></g>
<g><path style="opacity:0.767" fill="#c4dfa0" d="M 15.5,29.5 C 15.8333,30.1667 16.1667,30.8333 16.5,31.5C 15.4863,32.6737 14.153,33.3404 12.5,33.5C 11.8902,32.609 11.5569,31.609 11.5,30.5C 12.8333,30.1667 14.1667,29.8333 15.5,29.5 Z"/></g>
<g><path style="opacity:0.911" fill="#7cb242" d="M 35.5,30.5 C 41.6739,29.1729 43.8406,31.5062 42,37.5C 39.9361,38.5914 37.7695,38.7581 35.5,38C 34.6198,36.6439 34.2865,35.1439 34.5,33.5C 35.1098,32.609 35.4431,31.609 35.5,30.5 Z"/></g>
<g><path style="opacity:1" fill="#c4e1a4" d="M 22.5,31.5 C 23.1667,31.5 23.8333,31.5 24.5,31.5C 24.5,32.8333 24.5,34.1667 24.5,35.5C 23.8333,35.5 23.1667,35.5 22.5,35.5C 22.5,34.1667 22.5,32.8333 22.5,31.5 Z"/></g>
<g><path style="opacity:0.905" fill="#7cb242" d="M 22.5,35.5 C 23.1667,35.5 23.8333,35.5 24.5,35.5C 26.8896,35.6848 27.8896,37.0182 27.5,39.5C 27.8333,42.5 26.5,43.8333 23.5,43.5C 20.5,43.8333 19.1667,42.5 19.5,39.5C 19.1104,37.0182 20.1104,35.6848 22.5,35.5 Z"/></g>
</svg>
