<?xml version="1.0" encoding="UTF-8"?>
<!DOCTYPE svg PUBLIC "-//W3C//DTD SVG 1.1//EN" "http://www.w3.org/Graphics/SVG/1.1/DTD/svg11.dtd">
<svg xmlns="http://www.w3.org/2000/svg" version="1.1" width="96px" height="96px" style="shape-rendering:geometricPrecision; text-rendering:geometricPrecision; image-rendering:optimizeQuality; fill-rule:evenodd; clip-rule:evenodd" xmlns:xlink="http://www.w3.org/1999/xlink">
<g><path style="opacity:0.973" fill="#ffa625" d="M 42.5,7.5 C 55.3202,6.15271 60.8202,11.8194 59,24.5C 55.3449,31.0702 49.8449,33.2368 42.5,31C 35.9298,27.3449 33.7632,21.8449 36,14.5C 37.6941,11.6424 39.8607,9.30904 42.5,7.5 Z"/></g>
<g><path style="opacity:0.97" fill="#33681d" d="M 39.5,35.5 C 44.8437,35.334 50.1771,35.5006 55.5,36C 60.2265,37.7402 64.0598,40.5735 67,44.5C 67.4966,46.8098 67.6633,49.1432 67.5,51.5C 54.1667,51.5 40.8333,51.5 27.5,51.5C 27.2114,48.3508 27.7114,45.3508 29,42.5C 32.3075,39.7711 35.8075,37.4377 39.5,35.5 Z"/></g>
<g><path style="opacity:0.87" fill="#c5e1a5" d="M 23.5,67.5 C 21.8333,66.5 20.5,65.1667 19.5,63.5C 21.6281,60.8697 23.9614,58.3697 26.5,56C 28.8333,55.3333 31.1667,55.3333 33.5,56C 29.5842,59.4097 26.2508,63.243 23.5,67.5 Z"/></g>
<g><path style="opacity:1" fill="#c4e1a4" d="M 49.5,71.5 C 48.1667,71.5 46.8333,71.5 45.5,71.5C 45.5,66.1667 45.5,60.8333 45.5,55.5C 46.8333,55.5 48.1667,55.5 49.5,55.5C 49.5,60.8333 49.5,66.1667 49.5,71.5 Z"/></g>
<g><path style="opacity:0.893" fill="#c5e1a5" d="M 75.5,63.5 C 74.5,65.1667 73.1667,66.5 71.5,67.5C 68.7492,63.243 65.4158,59.4097 61.5,56C 63.8333,55.3333 66.1667,55.3333 68.5,56C 71.0386,58.3697 73.3719,60.8697 75.5,63.5 Z"/></g>
<g><path style="opacity:0.932" fill="#7bb342" d="M 19.5,63.5 C 20.5,65.1667 21.8333,66.5 23.5,67.5C 24.5431,78.4852 19.8765,81.9852 9.5,78C 4.80686,67.5434 8.14019,62.71 19.5,63.5 Z"/></g>
<g><path style="opacity:0.932" fill="#7cb342" d="M 75.5,63.5 C 86.4852,62.4569 89.9852,67.1235 86,77.5C 75.5434,82.1931 70.71,78.8598 71.5,67.5C 73.1667,66.5 74.5,65.1667 75.5,63.5 Z"/></g>
<g><path style="opacity:0.925" fill="#7bb342" d="M 45.5,71.5 C 46.8333,71.5 48.1667,71.5 49.5,71.5C 53.895,72.266 55.895,74.9327 55.5,79.5C 55.8333,85.1667 53.1667,87.8333 47.5,87.5C 40.269,86.7363 37.769,82.7363 40,75.5C 41.0183,73.0718 42.8517,71.7385 45.5,71.5 Z"/></g>
</svg>
