<?xml version="1.0" encoding="UTF-8"?>
<!DOCTYPE svg PUBLIC "-//W3C//DTD SVG 1.1//EN" "http://www.w3.org/Graphics/SVG/1.1/DTD/svg11.dtd">
<svg xmlns="http://www.w3.org/2000/svg" version="1.1" width="96px" height="96px" style="shape-rendering:geometricPrecision; text-rendering:geometricPrecision; image-rendering:optimizeQuality; fill-rule:evenodd; clip-rule:evenodd" xmlns:xlink="http://www.w3.org/1999/xlink">
<g><path style="opacity:0.993" fill="#8fa3ad" d="M 43.5,-0.5 C 46.1667,-0.5 48.8333,-0.5 51.5,-0.5C 54.3891,1.2774 55.7224,3.94407 55.5,7.5C 58.8333,7.5 62.1667,7.5 65.5,7.5C 65.5,9.5 65.5,11.5 65.5,13.5C 65.822,15.7224 65.1554,17.5557 63.5,19C 52.8333,19.6667 42.1667,19.6667 31.5,19C 29.8446,17.5557 29.178,15.7224 29.5,13.5C 29.5,11.5 29.5,9.5 29.5,7.5C 32.8333,7.5 36.1667,7.5 39.5,7.5C 39.2776,3.94407 40.6109,1.2774 43.5,-0.5 Z M 45.5,4.5 C 50.1585,4.01463 51.4919,5.84796 49.5,10C 44.7282,10.8104 43.3948,8.97711 45.5,4.5 Z"/></g>
<g><path style="opacity:0.998" fill="#455a64" d="M 29.5,7.5 C 29.5,9.5 29.5,11.5 29.5,13.5C 26.8806,13.2317 24.3806,13.565 22,14.5C 21.3333,36.5 21.3333,58.5 22,80.5C 30.4245,81.1597 38.9245,81.493 47.5,81.5C 56.0755,81.493 64.5755,81.1597 73,80.5C 73.6667,58.5 73.6667,36.5 73,14.5C 70.6194,13.565 68.1194,13.2317 65.5,13.5C 65.5,11.5 65.5,9.5 65.5,7.5C 68.8499,7.33499 72.1832,7.50166 75.5,8C 77.3333,8.5 78.5,9.66667 79,11.5C 79.6667,35.5 79.6667,59.5 79,83.5C 78.5,85.3333 77.3333,86.5 75.5,87C 56.8333,87.6667 38.1667,87.6667 19.5,87C 17.6667,86.5 16.5,85.3333 16,83.5C 15.3333,59.5 15.3333,35.5 16,11.5C 16.5,9.66667 17.6667,8.5 19.5,8C 22.8168,7.50166 26.1501,7.33499 29.5,7.5 Z"/></g>
<g><path style="opacity:1" fill="#fefefe" d="M 29.5,13.5 C 29.178,15.7224 29.8446,17.5557 31.5,19C 42.1667,19.6667 52.8333,19.6667 63.5,19C 65.1554,17.5557 65.822,15.7224 65.5,13.5C 68.1194,13.2317 70.6194,13.565 73,14.5C 73.6667,36.5 73.6667,58.5 73,80.5C 64.5755,81.1597 56.0755,81.493 47.5,81.5C 38.9245,81.493 30.4245,81.1597 22,80.5C 21.3333,58.5 21.3333,36.5 22,14.5C 24.3806,13.565 26.8806,13.2317 29.5,13.5 Z"/></g>
<g><path style="opacity:1" fill="#ced8db" d="M 29.5,37.5 C 32.1667,37.5 34.8333,37.5 37.5,37.5C 37.5,40.1667 37.5,42.8333 37.5,45.5C 34.8333,45.5 32.1667,45.5 29.5,45.5C 29.5,42.8333 29.5,40.1667 29.5,37.5 Z"/></g>
<g><path style="opacity:1" fill="#ced8db" d="M 41.5,39.5 C 49.5,39.5 57.5,39.5 65.5,39.5C 65.5,40.8333 65.5,42.1667 65.5,43.5C 57.5,43.5 49.5,43.5 41.5,43.5C 41.5,42.1667 41.5,40.8333 41.5,39.5 Z"/></g>
<g><path style="opacity:1" fill="#03a8f4" d="M 29.5,55.5 C 32.1667,55.5 34.8333,55.5 37.5,55.5C 37.5,58.1667 37.5,60.8333 37.5,63.5C 34.8333,63.5 32.1667,63.5 29.5,63.5C 29.5,60.8333 29.5,58.1667 29.5,55.5 Z"/></g>
<g><path style="opacity:1" fill="#03a8f4" d="M 41.5,57.5 C 49.5,57.5 57.5,57.5 65.5,57.5C 65.5,58.8333 65.5,60.1667 65.5,61.5C 57.5,61.5 49.5,61.5 41.5,61.5C 41.5,60.1667 41.5,58.8333 41.5,57.5 Z"/></g>
</svg>
