<?xml version="1.0" encoding="UTF-8"?>
<!DOCTYPE svg PUBLIC "-//W3C//DTD SVG 1.1//EN" "http://www.w3.org/Graphics/SVG/1.1/DTD/svg11.dtd">
<svg xmlns="http://www.w3.org/2000/svg" version="1.1" width="48px" height="48px" style="shape-rendering:geometricPrecision; text-rendering:geometricPrecision; image-rendering:optimizeQuality; fill-rule:evenodd; clip-rule:evenodd" xmlns:xlink="http://www.w3.org/1999/xlink">
<g><path style="opacity:0.95" fill="#536d79" d="M 22.5,3.5 C 23.1667,8.83333 23.8333,8.83333 24.5,3.5C 26.5,3.5 28.5,3.5 30.5,3.5C 31.1908,8.25959 32.1908,12.9263 33.5,17.5C 26.8333,17.5 20.1667,17.5 13.5,17.5C 14.8092,12.9263 15.8092,8.25959 16.5,3.5C 18.5,3.5 20.5,3.5 22.5,3.5 Z"/></g>
<g><path style="opacity:1" fill="#fcd834" d="M 22.5,3.5 C 23.1667,3.5 23.8333,3.5 24.5,3.5C 23.8333,8.83333 23.1667,8.83333 22.5,3.5 Z"/></g>
<g><path style="opacity:1" fill="#fcd834" d="M 22.5,10.5 C 23.5862,10.62 24.2528,11.2867 24.5,12.5C 24.1667,13.1667 23.8333,13.8333 23.5,14.5C 22.5713,13.3112 22.238,11.9778 22.5,10.5 Z"/></g>
<g><path style="opacity:1" fill="#afbec4" d="M 13.5,17.5 C 20.1667,17.5 26.8333,17.5 33.5,17.5C 36.8984,17.1796 40.2317,17.513 43.5,18.5C 42.675,19.3857 41.675,19.719 40.5,19.5C 40.5,20.5 40.5,21.5 40.5,22.5C 39.1667,22.5 37.8333,22.5 36.5,22.5C 36.5,21.5 36.5,20.5 36.5,19.5C 35.5,19.5 34.5,19.5 33.5,19.5C 30.5,19.5 27.5,19.5 24.5,19.5C 23.8333,19.5 23.1667,19.5 22.5,19.5C 19.5,19.5 16.5,19.5 13.5,19.5C 12.5,19.5 11.5,19.5 10.5,19.5C 10.5,20.5 10.5,21.5 10.5,22.5C 9.16667,22.5 7.83333,22.5 6.5,22.5C 6.5,21.5 6.5,20.5 6.5,19.5C 5.32496,19.719 4.32496,19.3857 3.5,18.5C 6.76829,17.513 10.1016,17.1796 13.5,17.5 Z"/></g>
<g><path style="opacity:0.972" fill="#536d79" d="M 13.5,19.5 C 16.5,19.5 19.5,19.5 22.5,19.5C 23.1667,22.1667 23.8333,22.1667 24.5,19.5C 27.5,19.5 30.5,19.5 33.5,19.5C 35.6348,27.0422 37.3015,34.7089 38.5,42.5C 33.8333,42.5 29.1667,42.5 24.5,42.5C 23.8333,37.1667 23.1667,37.1667 22.5,42.5C 17.8333,42.5 13.1667,42.5 8.5,42.5C 9.69848,34.7089 11.3652,27.0422 13.5,19.5 Z"/></g>
<g><path style="opacity:1" fill="#fcd834" d="M 22.5,19.5 C 23.1667,19.5 23.8333,19.5 24.5,19.5C 23.8333,22.1667 23.1667,22.1667 22.5,19.5 Z"/></g>
<g><path style="opacity:1" fill="#fcd834" d="M 22.5,24.5 C 23.5862,24.62 24.2528,25.2867 24.5,26.5C 24.1667,27.1667 23.8333,27.8333 23.5,28.5C 22.5713,27.3112 22.238,25.9778 22.5,24.5 Z"/></g>
<g><path style="opacity:1" fill="#fcd834" d="M 22.5,31.5 C 23.5862,31.62 24.2528,32.2867 24.5,33.5C 24.1667,34.1667 23.8333,34.8333 23.5,35.5C 22.5713,34.3112 22.238,32.9778 22.5,31.5 Z"/></g>
<g><path style="opacity:1" fill="#fcd834" d="M 24.5,42.5 C 23.8333,42.5 23.1667,42.5 22.5,42.5C 23.1667,37.1667 23.8333,37.1667 24.5,42.5 Z"/></g>
</svg>
