<?xml version="1.0" encoding="UTF-8"?>
<!DOCTYPE svg PUBLIC "-//W3C//DTD SVG 1.1//EN" "http://www.w3.org/Graphics/SVG/1.1/DTD/svg11.dtd">
<svg xmlns="http://www.w3.org/2000/svg" version="1.1" width="96px" height="96px" style="shape-rendering:geometricPrecision; text-rendering:geometricPrecision; image-rendering:optimizeQuality; fill-rule:evenodd; clip-rule:evenodd" xmlns:xlink="http://www.w3.org/1999/xlink">
<g><path style="opacity:0.982" fill="#394850" d="M 38.5,11.5 C 73.9751,10.1414 90.8085,27.1414 89,62.5C 87.5435,69.5803 84.3769,75.747 79.5,81C 58.1667,81.6667 36.8333,81.6667 15.5,81C 6.48772,70.4546 3.32106,58.288 6,44.5C 10.3482,26.9858 21.1816,15.9858 38.5,11.5 Z"/></g>
<g><path style="opacity:1" fill="#c5ced2" d="M 39.5,17.5 C 61.4995,15.6971 75.8328,25.1971 82.5,46C 84.6251,55.9582 82.7917,65.1248 77,73.5C 74.4136,71.4552 71.5802,69.7885 68.5,68.5C 67.1101,66.5054 67.6101,65.172 70,64.5C 71.7374,65.6198 73.5708,66.6198 75.5,67.5C 77.752,63.8332 79.0853,59.8332 79.5,55.5C 76.8333,55.5 74.1667,55.5 71.5,55.5C 71.5,54.1667 71.5,52.8333 71.5,51.5C 74.1667,51.5 76.8333,51.5 79.5,51.5C 78.4174,41.3253 73.7508,33.3253 65.5,27.5C 63.8437,29.4602 62.177,31.4602 60.5,33.5C 59.3279,33.0814 58.3279,32.4147 57.5,31.5C 58.6351,29.2011 59.9684,27.0344 61.5,25C 57.9687,23.3942 54.302,22.2275 50.5,21.5C 49.52,24.0865 49.1866,26.7531 49.5,29.5C 48.1667,29.5 46.8333,29.5 45.5,29.5C 45.5,26.8333 45.5,24.1667 45.5,21.5C 41.4199,21.5828 37.5865,22.5828 34,24.5C 33.6652,27.1801 34.4986,29.5134 36.5,31.5C 35.5373,33.4896 34.204,33.8229 32.5,32.5C 31.3333,30.8333 30.1667,29.1667 29,27.5C 25.6397,29.3603 23.1397,32.027 21.5,35.5C 23.5398,37.177 25.5398,38.8437 27.5,40.5C 27.1131,41.7199 26.2798,42.3865 25,42.5C 22.9423,41.8883 21.109,40.8883 19.5,39.5C 16.7705,43.0219 15.4371,47.0219 15.5,51.5C 18.1667,51.5 20.8333,51.5 23.5,51.5C 23.5,52.8333 23.5,54.1667 23.5,55.5C 20.8333,55.5 18.1667,55.5 15.5,55.5C 15.9147,59.8332 17.248,63.8332 19.5,67.5C 21.5,66.5 23.5,65.5 25.5,64.5C 27.1013,65.0347 27.6013,66.0347 27,67.5C 24,69.5 21,71.5 18,73.5C 7.0265,54.6386 9.85983,38.1386 26.5,24C 30.6467,21.2599 34.98,19.0933 39.5,17.5 Z"/></g>
<g><path style="opacity:1" fill="#f53e05" d="M 68.5,38.5 C 70.3588,38.4609 71.6921,39.2942 72.5,41C 66.9979,44.5855 61.3312,47.9188 55.5,51C 53.8333,53.3333 52.1667,55.6667 50.5,58C 44.1658,59.3286 41.3325,56.8286 42,50.5C 44.6121,47.4241 47.7787,46.7575 51.5,48.5C 57.3944,45.3924 63.061,42.059 68.5,38.5 Z"/></g>
<g><path style="opacity:1" fill="#00e5ff" d="M 35.5,67.5 C 43.5,67.5 51.5,67.5 59.5,67.5C 59.5,70.1667 59.5,72.8333 59.5,75.5C 51.5,75.5 43.5,75.5 35.5,75.5C 35.5,72.8333 35.5,70.1667 35.5,67.5 Z"/></g>
</svg>
