<?xml version="1.0" encoding="UTF-8"?>
<!DOCTYPE svg PUBLIC "-//W3C//DTD SVG 1.1//EN" "http://www.w3.org/Graphics/SVG/1.1/DTD/svg11.dtd">
<svg xmlns="http://www.w3.org/2000/svg" version="1.1" width="96px" height="96px" style="shape-rendering:geometricPrecision; text-rendering:geometricPrecision; image-rendering:optimizeQuality; fill-rule:evenodd; clip-rule:evenodd" xmlns:xlink="http://www.w3.org/1999/xlink">
<g><path style="opacity:1" fill="#ff4913" d="M 38.5,7.5 C 61.3294,4.54685 77.1628,13.5469 86,34.5C 91.7177,58.8973 83.2177,76.064 60.5,86C 36.1027,91.7177 18.936,83.2177 9,60.5C 3.42409,33.977 13.2574,16.3104 38.5,7.5 Z"/></g>
<g><path style="opacity:1" fill="#fdfaf9" d="M 40.5,15.5 C 67.3772,14.876 80.2105,27.876 79,54.5C 72.7344,72.8875 59.9011,81.0542 40.5,79C 22.1276,72.7715 13.9609,59.9382 16,40.5C 19.6829,27.6514 27.8496,19.3181 40.5,15.5 Z"/></g>
<g><path style="opacity:1" fill="#80878b" d="M 29.5,34.5 C 34.6405,33.5119 39.9738,33.1786 45.5,33.5C 45.7845,35.4147 45.4511,37.0813 44.5,38.5C 44.5,37.1667 44.5,35.8333 44.5,34.5C 39.5,34.5 34.5,34.5 29.5,34.5 Z"/></g>
<g><path style="opacity:1" fill="#2c373d" d="M 29.5,34.5 C 34.5,34.5 39.5,34.5 44.5,34.5C 44.5,35.8333 44.5,37.1667 44.5,38.5C 41.1667,38.5 37.8333,38.5 34.5,38.5C 34.5,40.1667 34.5,41.8333 34.5,43.5C 44.1107,42.6806 47.6107,47.0139 45,56.5C 41.5744,61.4384 37.0744,62.6051 31.5,60C 29.5864,58.5867 28.2531,56.7534 27.5,54.5C 31.0517,52.923 34.0517,53.5897 36.5,56.5C 37.1667,56.3333 37.8333,56.1667 38.5,56C 39.6023,53.5991 39.769,51.0991 39,48.5C 35.5816,47.7343 32.0816,47.7343 28.5,48.5C 28.3531,43.7858 28.6864,39.1191 29.5,34.5 Z"/></g>
<g><path style="opacity:1" fill="#2b373d" d="M 54.5,33.5 C 60.0939,32.7432 64.2605,34.7432 67,39.5C 67.8508,45.2531 67.5174,50.9198 66,56.5C 63.3372,60.7254 59.5039,62.2254 54.5,61C 52.6217,59.4571 51.1217,57.6238 50,55.5C 49.3333,50.1667 49.3333,44.8333 50,39.5C 51.332,37.34 52.832,35.34 54.5,33.5 Z"/></g>
<g><path style="opacity:1" fill="#f4f5f5" d="M 56.5,38.5 C 58.451,38.2267 59.951,38.8934 61,40.5C 61.6667,45.1667 61.6667,49.8333 61,54.5C 59.6883,56.6576 58.0217,56.9909 56,55.5C 55.2153,49.7507 55.3819,44.084 56.5,38.5 Z"/></g>
</svg>
