<?xml version="1.0" encoding="UTF-8"?>
<!DOCTYPE svg PUBLIC "-//W3C//DTD SVG 1.1//EN" "http://www.w3.org/Graphics/SVG/1.1/DTD/svg11.dtd">
<svg xmlns="http://www.w3.org/2000/svg" version="1.1" width="96px" height="96px" style="shape-rendering:geometricPrecision; text-rendering:geometricPrecision; image-rendering:optimizeQuality; fill-rule:evenodd; clip-rule:evenodd" xmlns:xlink="http://www.w3.org/1999/xlink">
<g><path style="opacity:0.924" fill="#92a5ae" d="M 59.5,14.5 C 58.4154,16.5869 56.7488,17.9202 54.5,18.5C 53.0937,18.9731 52.427,19.9731 52.5,21.5C 51.8333,21.5 51.5,21.8333 51.5,22.5C 50.8333,22.5 50.5,22.8333 50.5,23.5C 49.8333,23.5 49.5,23.8333 49.5,24.5C 48.8333,24.5 48.5,24.8333 48.5,25.5C 47.8333,25.5 47.5,25.8333 47.5,26.5C 46.8333,26.5 46.5,26.8333 46.5,27.5C 46.1667,28.1667 45.8333,28.8333 45.5,29.5C 44.8333,29.5 44.5,29.8333 44.5,30.5C 43.8333,30.5 43.5,30.8333 43.5,31.5C 42.8333,31.5 42.5,31.8333 42.5,32.5C 41.8333,32.5 41.5,32.8333 41.5,33.5C 40.8333,33.5 40.1667,33.5 39.5,33.5C 37.0754,31.8303 36.9087,29.8303 39,27.5C 43.2829,23.0951 47.4496,18.5951 51.5,14C 54.2605,13.2782 56.9272,13.4448 59.5,14.5 Z"/></g>
<g><path style="opacity:0.959" fill="#34681e" d="M 59.5,34.5 C 55.572,38.0882 51.572,41.7548 47.5,45.5C 44.7861,42.7846 41.7861,40.4512 38.5,38.5C 39.8333,36.8333 41.1667,35.1667 42.5,33.5C 42.5,33.1667 42.5,32.8333 42.5,32.5C 43.1667,32.5 43.5,32.1667 43.5,31.5C 44.1667,31.5 44.5,31.1667 44.5,30.5C 45.1667,30.5 45.5,30.1667 45.5,29.5C 45.8333,28.8333 46.1667,28.1667 46.5,27.5C 47.1667,27.5 47.5,27.1667 47.5,26.5C 48.1667,26.5 48.5,26.1667 48.5,25.5C 49.1667,25.5 49.5,25.1667 49.5,24.5C 50.1667,24.5 50.5,24.1667 50.5,23.5C 51.1667,23.5 51.5,23.1667 51.5,22.5C 52.1667,22.5 52.5,22.1667 52.5,21.5C 53.9063,21.0269 54.573,20.0269 54.5,18.5C 56.7488,17.9202 58.4154,16.5869 59.5,14.5C 67.8374,11.6655 71.0041,14.6655 69,23.5C 65.3527,26.8249 62.186,30.4915 59.5,34.5 Z"/></g>
<g><path style="opacity:0.951" fill="#fdb64d" d="M 39.5,33.5 C 40.1667,33.5 40.8333,33.5 41.5,33.5C 41.8333,33.5 42.1667,33.5 42.5,33.5C 41.1667,35.1667 39.8333,36.8333 38.5,38.5C 37.0937,38.9731 36.427,39.9731 36.5,41.5C 29.5,48.8333 22.5,56.1667 15.5,63.5C 13.2776,63.822 11.4443,63.1554 10,61.5C 9.24501,58.6967 9.57834,56.0301 11,53.5C 16.82,46.7131 22.9867,40.2131 29.5,34C 32.8168,33.5017 36.1501,33.335 39.5,33.5 Z"/></g>
<g><path style="opacity:0.993" fill="#fdb64c" d="M 59.5,34.5 C 64.6303,40.1314 69.9637,45.6314 75.5,51C 78.8168,51.4983 82.1501,51.665 85.5,51.5C 85.5,60.8333 85.5,70.1667 85.5,79.5C 74.3205,79.5786 63.3205,79.5786 52.5,79.5C 46.3012,77.3668 39.9678,75.7001 33.5,74.5C 29.8979,76.1179 26.5645,75.7846 23.5,73.5C 23.6107,72.8826 23.944,72.3826 24.5,72C 19.7186,69.6209 18.552,66.1209 21,61.5C 22.5741,60.1524 24.4075,59.4858 26.5,59.5C 29.4682,60.1616 32.4682,60.495 35.5,60.5C 39.0779,61.5887 42.7446,61.7554 46.5,61C 49.672,59.2481 52.672,57.2481 55.5,55C 54.2062,52.913 53.0395,50.7463 52,48.5C 50.8904,46.9632 49.3904,46.2965 47.5,46.5C 47.5,46.1667 47.5,45.8333 47.5,45.5C 51.572,41.7548 55.572,38.0882 59.5,34.5 Z"/></g>
<g><path style="opacity:1" fill="#f4f60a" d="M 38.5,38.5 C 41.7861,40.4512 44.7861,42.7846 47.5,45.5C 47.5,45.8333 47.5,46.1667 47.5,46.5C 46.5,47.1667 45.5,47.8333 44.5,48.5C 41.808,46.1377 39.1413,43.8044 36.5,41.5C 36.427,39.9731 37.0937,38.9731 38.5,38.5 Z"/></g>
<g><path style="opacity:1" fill="#52af4f" d="M 36.5,41.5 C 39.1413,43.8044 41.808,46.1377 44.5,48.5C 41.5244,52.4815 38.5244,56.4815 35.5,60.5C 32.4682,60.495 29.4682,60.1616 26.5,59.5C 24.4075,59.4858 22.5741,60.1524 21,61.5C 18.552,66.1209 19.7186,69.6209 24.5,72C 23.944,72.3826 23.6107,72.8826 23.5,73.5C 20.9922,75.9236 17.9922,77.5903 14.5,78.5C 13.1667,77.5 11.8333,76.5 10.5,75.5C 11.6172,71.2662 13.2839,67.2662 15.5,63.5C 22.5,56.1667 29.5,48.8333 36.5,41.5 Z"/></g>
<g><path style="opacity:1" fill="#e5942a" d="M 47.5,46.5 C 49.3904,46.2965 50.8904,46.9632 52,48.5C 53.0395,50.7463 54.2062,52.913 55.5,55C 52.672,57.2481 49.672,59.2481 46.5,61C 42.7446,61.7554 39.0779,61.5887 35.5,60.5C 38.5244,56.4815 41.5244,52.4815 44.5,48.5C 45.5,47.8333 46.5,47.1667 47.5,46.5 Z"/></g>
<g><path style="opacity:1" fill="#ffcbc9" d="M 23.5,61.5 C 25.3464,61.2222 26.6798,61.8888 27.5,63.5C 25.8788,68.7918 23.8788,69.2918 21.5,65C 21.9783,63.6974 22.645,62.5307 23.5,61.5 Z"/></g>
<g><path style="opacity:0.876" fill="#e69329" d="M 33.5,74.5 C 39.9678,75.7001 46.3012,77.3668 52.5,79.5C 51.6879,80.9931 50.3545,81.6598 48.5,81.5C 45.6987,81.5359 43.8653,80.2026 43,77.5C 40.8471,79.4439 38.3471,79.9439 35.5,79C 33.9632,77.8904 33.2965,76.3904 33.5,74.5 Z"/></g>
<g><path style="opacity:0.992" fill="#455d62" d="M 10.5,75.5 C 11.8333,76.5 13.1667,77.5 14.5,78.5C 13.3126,80.9754 11.3126,81.9754 8.5,81.5C 8.2525,79.1417 8.91917,77.1417 10.5,75.5 Z"/></g>
</svg>
