<?xml version="1.0" encoding="UTF-8"?>
<!DOCTYPE svg PUBLIC "-//W3C//DTD SVG 1.1//EN" "http://www.w3.org/Graphics/SVG/1.1/DTD/svg11.dtd">
<svg xmlns="http://www.w3.org/2000/svg" version="1.1" width="96px" height="96px" style="shape-rendering:geometricPrecision; text-rendering:geometricPrecision; image-rendering:optimizeQuality; fill-rule:evenodd; clip-rule:evenodd" xmlns:xlink="http://www.w3.org/1999/xlink">
<g><path style="opacity:0.982" fill="#2196f2" d="M 63.5,9.5 C 74.4282,7.07974 82.9282,10.4131 89,19.5C 90.3417,35.4925 82.8417,42.9925 66.5,42C 62.4747,44.8517 58.1414,45.6851 53.5,44.5C 54.3052,42.0846 55.3052,39.7513 56.5,37.5C 48.038,25.3713 50.3713,16.0379 63.5,9.5 Z"/></g>
<g><path style="opacity:1" fill="#90caf9" d="M 59.5,19.5 C 66.8333,19.5 74.1667,19.5 81.5,19.5C 81.5,20.8333 81.5,22.1667 81.5,23.5C 74.1667,23.5 66.8333,23.5 59.5,23.5C 59.5,22.1667 59.5,20.8333 59.5,19.5 Z"/></g>
<g><path style="opacity:0.94" fill="#424242" d="M 45.5,45.5 C 44.2058,46.2899 43.0391,47.2899 42,48.5C 43.0319,42.2853 40.6986,37.9519 35,35.5C 29.5,37.3333 24,39.1667 18.5,41C 17.7256,43.405 17.2256,45.905 17,48.5C 16.1841,47.1772 15.0174,46.5106 13.5,46.5C 12.3341,30.3285 19.6675,23.6619 35.5,26.5C 38.5697,28.4644 41.4031,30.7977 44,33.5C 45.2662,37.3951 45.7662,41.3951 45.5,45.5 Z"/></g>
<g><path style="opacity:1" fill="#90caf9" d="M 59.5,27.5 C 64.1667,27.5 68.8333,27.5 73.5,27.5C 73.5,28.8333 73.5,30.1667 73.5,31.5C 68.8333,31.5 64.1667,31.5 59.5,31.5C 59.5,30.1667 59.5,28.8333 59.5,27.5 Z"/></g>
<g><path style="opacity:1" fill="#90caf9" d="M 77.5,27.5 C 78.8333,27.5 80.1667,27.5 81.5,27.5C 81.5,28.8333 81.5,30.1667 81.5,31.5C 80.1667,31.5 78.8333,31.5 77.5,31.5C 77.5,30.1667 77.5,28.8333 77.5,27.5 Z"/></g>
<g><path style="opacity:0.979" fill="#fbb34b" d="M 45.5,45.5 C 44.5771,48.7767 43.7438,52.11 43,55.5C 41.669,57.9962 39.8356,59.9962 37.5,61.5C 32.1374,64.0794 26.8041,64.0794 21.5,61.5C 16.6303,57.7425 13.9637,52.7425 13.5,46.5C 15.0174,46.5106 16.1841,47.1772 17,48.5C 17.2256,45.905 17.7256,43.405 18.5,41C 24,39.1667 29.5,37.3333 35,35.5C 40.6986,37.9519 43.0319,42.2853 42,48.5C 43.0391,47.2899 44.2058,46.2899 45.5,45.5 Z"/></g>
<g><path style="opacity:1" fill="#804d1c" d="M 22.5,45.5 C 25.8606,46.2032 26.1939,47.5365 23.5,49.5C 21.3576,48.5629 21.0243,47.2296 22.5,45.5 Z"/></g>
<g><path style="opacity:1" fill="#804d1c" d="M 34.5,45.5 C 37.8606,46.2032 38.1939,47.5365 35.5,49.5C 33.3576,48.5629 33.0243,47.2296 34.5,45.5 Z"/></g>
<g><path style="opacity:1" fill="#fa9708" d="M 21.5,61.5 C 26.8041,64.0794 32.1374,64.0794 37.5,61.5C 37.5,62.8333 37.5,64.1667 37.5,65.5C 34.943,73.4546 30.2763,75.1213 23.5,70.5C 22.5435,68.9246 21.8769,67.258 21.5,65.5C 21.5,64.1667 21.5,62.8333 21.5,61.5 Z"/></g>
<g><path style="opacity:0.973" fill="#4ec2f6" d="M 17.5,66.5 C 19.989,76.2451 25.989,79.4117 35.5,76C 38.9799,73.7025 40.9799,70.5358 41.5,66.5C 49.8003,70.0976 53.8003,76.431 53.5,85.5C 37.5,85.5 21.5,85.5 5.5,85.5C 5.2142,76.3949 9.2142,70.0616 17.5,66.5 Z"/></g>
<g><path style="opacity:1" fill="#195f9e" d="M 21.5,65.5 C 21.8769,67.258 22.5435,68.9246 23.5,70.5C 30.2763,75.1213 34.943,73.4546 37.5,65.5C 38.9587,65.4326 40.2921,65.7659 41.5,66.5C 40.9799,70.5358 38.9799,73.7025 35.5,76C 25.989,79.4117 19.989,76.2451 17.5,66.5C 18.7079,65.7659 20.0413,65.4326 21.5,65.5 Z"/></g>
</svg>
