<?xml version="1.0" encoding="UTF-8"?>
<!DOCTYPE svg PUBLIC "-//W3C//DTD SVG 1.1//EN" "http://www.w3.org/Graphics/SVG/1.1/DTD/svg11.dtd">
<svg xmlns="http://www.w3.org/2000/svg" version="1.1" width="96px" height="96px" style="shape-rendering:geometricPrecision; text-rendering:geometricPrecision; image-rendering:optimizeQuality; fill-rule:evenodd; clip-rule:evenodd" xmlns:xlink="http://www.w3.org/1999/xlink">
<g><path style="opacity:0.987" fill="#2496f2" d="M 81.5,25.5 C 75.4908,25.3338 69.4908,25.5005 63.5,26C 63,26.5 62.5,27 62,27.5C 61.3333,36.1667 61.3333,44.8333 62,53.5C 63.8333,51.6667 65.6667,49.8333 67.5,48C 70.146,47.5026 72.8127,47.3359 75.5,47.5C 75.0525,51.7244 76.7191,53.391 80.5,52.5C 80.8333,53.3333 81.1667,54.1667 81.5,55C 80.5776,58.1659 80.0776,61.3325 80,64.5C 82.8681,59.1992 84.0348,53.5325 83.5,47.5C 84.8333,47.5 86.1667,47.5 87.5,47.5C 86.8663,68.2628 76.533,81.4295 56.5,87C 37.2884,90.1623 22.4551,83.6623 12,67.5C 7.07182,56.456 6.23849,45.1226 9.5,33.5C 15.1667,33.5 20.8333,33.5 26.5,33.5C 26.4887,37.7939 27.4887,41.7939 29.5,45.5C 27.2776,45.178 25.4443,45.8446 24,47.5C 23.3333,53.5 23.3333,59.5 24,65.5C 24.5,66 25,66.5 25.5,67C 33.1667,67.3333 40.8333,67.6667 48.5,68C 49.056,68.3826 49.3893,68.8826 49.5,69.5C 49.5769,73.9628 48.9102,78.2961 47.5,82.5C 50.5406,82.5944 52.2072,81.0944 52.5,78C 59.0539,74.2803 64.0539,69.1137 67.5,62.5C 63.3757,58.7191 58.7091,55.7191 53.5,53.5C 53.9452,50.6354 53.2785,48.1354 51.5,46C 46.5111,45.5007 41.5111,45.3341 36.5,45.5C 36.4701,44.5028 36.9701,43.8361 38,43.5C 40.1351,42.8729 42.3018,42.3729 44.5,42C 47.488,36.8463 51.8214,33.3463 57.5,31.5C 55.2521,26.5695 51.5854,23.5695 46.5,22.5C 46.5,23.8333 46.5,25.1667 46.5,26.5C 44.3043,26.4348 42.3043,25.7681 40.5,24.5C 41.7515,22.9991 42.7515,21.3325 43.5,19.5C 40.2937,18.1921 36.9604,17.5254 33.5,17.5C 34.1089,14.1216 32.7756,12.1216 29.5,11.5C 32.135,9.67197 35.135,8.50531 38.5,8C 56.7905,4.58647 71.1238,10.4198 81.5,25.5 Z"/></g>
<g><path style="opacity:0.992" fill="#feb204" d="M 29.5,11.5 C 32.7756,12.1216 34.1089,14.1216 33.5,17.5C 33.6663,24.8409 33.4997,32.1742 33,39.5C 30.9633,37.2941 28.7966,35.2941 26.5,33.5C 20.8333,33.5 15.1667,33.5 9.5,33.5C 7.5328,33.7394 5.69946,33.4061 4,32.5C 3.33333,25.8333 3.33333,19.1667 4,12.5C 12.4149,11.5168 20.9149,11.1834 29.5,11.5 Z"/></g>
<g><path style="opacity:1" fill="#5fb2f5" d="M 48.5,11.5 C 53.1021,11.384 56.9354,13.0507 60,16.5C 59.212,18.6289 58.5453,20.9623 58,23.5C 54.6514,19.9842 51.1514,16.6508 47.5,13.5C 47.8627,12.8165 48.1961,12.1499 48.5,11.5 Z"/></g>
<g><path style="opacity:1" fill="#62b4f5" d="M 33.5,17.5 C 36.9604,17.5254 40.2937,18.1921 43.5,19.5C 42.7515,21.3325 41.7515,22.9991 40.5,24.5C 42.3043,25.7681 44.3043,26.4348 46.5,26.5C 46.5,25.1667 46.5,23.8333 46.5,22.5C 51.5854,23.5695 55.2521,26.5695 57.5,31.5C 51.8214,33.3463 47.488,36.8463 44.5,42C 42.3018,42.3729 40.1351,42.8729 38,43.5C 36.9701,43.8361 36.4701,44.5028 36.5,45.5C 34.1667,45.5 31.8333,45.5 29.5,45.5C 27.4887,41.7939 26.4887,37.7939 26.5,33.5C 28.7966,35.2941 30.9633,37.2941 33,39.5C 33.4997,32.1742 33.6663,24.8409 33.5,17.5 Z"/></g>
<g><path style="opacity:0.998" fill="#01c753" d="M 81.5,25.5 C 84.7766,25.2161 87.9433,25.5495 91,26.5C 91.6667,33.1667 91.6667,39.8333 91,46.5C 89.9887,47.3366 88.8221,47.67 87.5,47.5C 86.1667,47.5 84.8333,47.5 83.5,47.5C 80.8333,47.5 78.1667,47.5 75.5,47.5C 72.8127,47.3359 70.146,47.5026 67.5,48C 65.6667,49.8333 63.8333,51.6667 62,53.5C 61.3333,44.8333 61.3333,36.1667 62,27.5C 62.5,27 63,26.5 63.5,26C 69.4908,25.5005 75.4908,25.3338 81.5,25.5 Z"/></g>
<g><path style="opacity:1" fill="#fe5722" d="M 29.5,45.5 C 31.8333,45.5 34.1667,45.5 36.5,45.5C 41.5111,45.3341 46.5111,45.5007 51.5,46C 53.2785,48.1354 53.9452,50.6354 53.5,53.5C 53.6662,59.8421 53.4995,66.1754 53,72.5C 51.9609,71.2899 50.7942,70.2899 49.5,69.5C 49.3893,68.8826 49.056,68.3826 48.5,68C 40.8333,67.6667 33.1667,67.3333 25.5,67C 25,66.5 24.5,66 24,65.5C 23.3333,59.5 23.3333,53.5 24,47.5C 25.4443,45.8446 27.2776,45.178 29.5,45.5 Z"/></g>
<g><path style="opacity:1" fill="#5fb2f5" d="M 75.5,47.5 C 78.1667,47.5 80.8333,47.5 83.5,47.5C 84.0348,53.5325 82.8681,59.1992 80,64.5C 80.0776,61.3325 80.5776,58.1659 81.5,55C 81.1667,54.1667 80.8333,53.3333 80.5,52.5C 76.7191,53.391 75.0525,51.7244 75.5,47.5 Z"/></g>
<g><path style="opacity:1" fill="#64b3f4" d="M 53.5,53.5 C 58.7091,55.7191 63.3757,58.7191 67.5,62.5C 64.0539,69.1137 59.0539,74.2803 52.5,78C 52.2072,81.0944 50.5406,82.5944 47.5,82.5C 48.9102,78.2961 49.5769,73.9628 49.5,69.5C 50.7942,70.2899 51.9609,71.2899 53,72.5C 53.4995,66.1754 53.6662,59.8421 53.5,53.5 Z"/></g>
</svg>
