<?xml version="1.0" encoding="UTF-8"?>
<!DOCTYPE svg PUBLIC "-//W3C//DTD SVG 1.1//EN" "http://www.w3.org/Graphics/SVG/1.1/DTD/svg11.dtd">
<svg xmlns="http://www.w3.org/2000/svg" version="1.1" width="96px" height="96px" style="shape-rendering:geometricPrecision; text-rendering:geometricPrecision; image-rendering:optimizeQuality; fill-rule:evenodd; clip-rule:evenodd" xmlns:xlink="http://www.w3.org/1999/xlink">
<g><path style="opacity:1" fill="#2195f3" d="M 51.5,11.5 C 51.5,14.5 51.5,17.5 51.5,20.5C 51.5,22.1667 51.5,23.8333 51.5,25.5C 48.8333,25.5 46.1667,25.5 43.5,25.5C 43.5,23.8333 43.5,22.1667 43.5,20.5C 43.5,17.5 43.5,14.5 43.5,11.5C 43.5,9.5 43.5,7.5 43.5,5.5C 46.1667,5.5 48.8333,5.5 51.5,5.5C 51.5,7.5 51.5,9.5 51.5,11.5 Z"/></g>
<g><path style="opacity:0.96" fill="#63b5f6" d="M 43.5,11.5 C 43.5,14.5 43.5,17.5 43.5,20.5C 30.8333,23.1667 23.1667,30.8333 20.5,43.5C 17.5,43.5 14.5,43.5 11.5,43.5C 12.8172,31.6752 18.4839,22.5085 28.5,16C 33.1826,13.383 38.1826,11.883 43.5,11.5 Z"/></g>
<g><path style="opacity:0.95" fill="#64b4f6" d="M 51.5,11.5 C 63.3248,12.8172 72.4915,18.4839 79,28.5C 81.617,33.1826 83.117,38.1826 83.5,43.5C 80.5,43.5 77.5,43.5 74.5,43.5C 71.8333,30.8333 64.1667,23.1667 51.5,20.5C 51.5,17.5 51.5,14.5 51.5,11.5 Z"/></g>
<g><path style="opacity:1" fill="#2195f3" d="M 11.5,43.5 C 14.5,43.5 17.5,43.5 20.5,43.5C 22.1667,43.5 23.8333,43.5 25.5,43.5C 25.5,46.1667 25.5,48.8333 25.5,51.5C 23.8333,51.5 22.1667,51.5 20.5,51.5C 17.5,51.5 14.5,51.5 11.5,51.5C 9.5,51.5 7.5,51.5 5.5,51.5C 5.5,48.8333 5.5,46.1667 5.5,43.5C 7.5,43.5 9.5,43.5 11.5,43.5 Z"/></g>
<g><path style="opacity:1" fill="#2195f3" d="M 74.5,43.5 C 77.5,43.5 80.5,43.5 83.5,43.5C 85.5,43.5 87.5,43.5 89.5,43.5C 89.5,46.1667 89.5,48.8333 89.5,51.5C 87.5,51.5 85.5,51.5 83.5,51.5C 80.5,51.5 77.5,51.5 74.5,51.5C 72.8333,51.5 71.1667,51.5 69.5,51.5C 69.5,48.8333 69.5,46.1667 69.5,43.5C 71.1667,43.5 72.8333,43.5 74.5,43.5 Z"/></g>
<g><path style="opacity:0.941" fill="#64b4f6" d="M 11.5,51.5 C 14.5,51.5 17.5,51.5 20.5,51.5C 23.1667,64.1667 30.8333,71.8333 43.5,74.5C 43.5,77.5 43.5,80.5 43.5,83.5C 31.6752,82.1828 22.5085,76.5161 16,66.5C 13.383,61.8174 11.883,56.8174 11.5,51.5 Z"/></g>
<g><path style="opacity:0.957" fill="#64b4f6" d="M 74.5,51.5 C 77.5,51.5 80.5,51.5 83.5,51.5C 82.1828,63.3248 76.5161,72.4915 66.5,79C 61.8174,81.617 56.8174,83.117 51.5,83.5C 51.5,80.5 51.5,77.5 51.5,74.5C 64.1667,71.8333 71.8333,64.1667 74.5,51.5 Z"/></g>
<g><path style="opacity:1" fill="#2195f3" d="M 51.5,74.5 C 51.5,77.5 51.5,80.5 51.5,83.5C 51.5,85.5 51.5,87.5 51.5,89.5C 48.8333,89.5 46.1667,89.5 43.5,89.5C 43.5,87.5 43.5,85.5 43.5,83.5C 43.5,80.5 43.5,77.5 43.5,74.5C 43.5,72.8333 43.5,71.1667 43.5,69.5C 46.1667,69.5 48.8333,69.5 51.5,69.5C 51.5,71.1667 51.5,72.8333 51.5,74.5 Z"/></g>
</svg>
