<?xml version="1.0" encoding="UTF-8"?>
<!DOCTYPE svg PUBLIC "-//W3C//DTD SVG 1.1//EN" "http://www.w3.org/Graphics/SVG/1.1/DTD/svg11.dtd">
<svg xmlns="http://www.w3.org/2000/svg" version="1.1" width="96px" height="96px" style="shape-rendering:geometricPrecision; text-rendering:geometricPrecision; image-rendering:optimizeQuality; fill-rule:evenodd; clip-rule:evenodd" xmlns:xlink="http://www.w3.org/1999/xlink">
<g><path style="opacity:0.949" fill="#fd3e03" d="M 77.5,37.5 C 75.031,40.1438 72.6976,42.9772 70.5,46C 69.8333,46.6667 69.1667,46.6667 68.5,46C 61.3323,38.165 56.999,28.9983 55.5,18.5C 59.8919,7.31717 67.5585,4.48383 78.5,10C 83.6914,15.6901 84.8581,22.1901 82,29.5C 80.2347,32.0321 78.7347,34.6987 77.5,37.5 Z M 66.5,16.5 C 74.4863,15.998 76.4863,19.1647 72.5,26C 64.424,26.8047 62.424,23.638 66.5,16.5 Z"/></g>
<g><path style="opacity:0.967" fill="#2489e4" d="M 55.5,18.5 C 56.999,28.9983 61.3323,38.165 68.5,46C 69.1667,46.6667 69.8333,46.6667 70.5,46C 72.6976,42.9772 75.031,40.1438 77.5,37.5C 83.7939,58.7321 77.1272,74.2321 57.5,84C 36.9963,89.1614 22.163,82.3281 13,63.5C 7.83855,42.9963 14.6719,28.163 33.5,19C 40.8152,17.2504 48.1485,17.0838 55.5,18.5 Z"/></g>
<g><path style="opacity:1" fill="#8ec8f8" d="M 41.5,22.5 C 43.4136,25.6843 44.0803,29.351 43.5,33.5C 40.4281,33.8174 37.4281,33.4841 34.5,32.5C 36.0802,28.5951 38.4135,25.2618 41.5,22.5 Z"/></g>
<g><path style="opacity:1" fill="#89c5f7" d="M 33.5,23.5 C 34.0431,23.56 34.3764,23.8933 34.5,24.5C 32.6395,26.8877 31.3061,29.5544 30.5,32.5C 27.5541,33.6548 24.5541,33.8214 21.5,33C 25.024,29.091 29.024,25.9243 33.5,23.5 Z"/></g>
<g><path style="opacity:1" fill="#8dc8f8" d="M 18.5,37.5 C 21.8333,37.5 25.1667,37.5 28.5,37.5C 27.9791,41.4809 27.6458,45.4809 27.5,49.5C 23.5,49.5 19.5,49.5 15.5,49.5C 15.684,45.2841 16.684,41.2841 18.5,37.5 Z"/></g>
<g><path style="opacity:1" fill="#8ec8f8" d="M 32.5,37.5 C 36.1667,37.5 39.8333,37.5 43.5,37.5C 43.5,41.5 43.5,45.5 43.5,49.5C 39.5,49.5 35.5,49.5 31.5,49.5C 31.8333,45.5 32.1667,41.5 32.5,37.5 Z"/></g>
<g><path style="opacity:1" fill="#8ec9f8" d="M 47.5,37.5 C 49.604,37.2011 51.604,37.5344 53.5,38.5C 55.5,41.8333 57.5,45.1667 59.5,48.5C 55.5546,49.4909 51.5546,49.8242 47.5,49.5C 47.5,45.5 47.5,41.5 47.5,37.5 Z"/></g>
<g><path style="opacity:1" fill="#8ec9f8" d="M 15.5,53.5 C 19.5,53.5 23.5,53.5 27.5,53.5C 27.6458,57.5191 27.9791,61.5191 28.5,65.5C 25.1016,65.8204 21.7683,65.487 18.5,64.5C 17.1191,60.9249 16.1191,57.2582 15.5,53.5 Z"/></g>
<g><path style="opacity:1" fill="#8ec9f8" d="M 31.5,53.5 C 35.5,53.5 39.5,53.5 43.5,53.5C 43.5,57.5 43.5,61.5 43.5,65.5C 40.1016,65.8204 36.7683,65.487 33.5,64.5C 32.319,60.9284 31.6524,57.2617 31.5,53.5 Z"/></g>
<g><path style="opacity:1" fill="#8ec9f8" d="M 47.5,53.5 C 51.5,53.5 55.5,53.5 59.5,53.5C 59.588,57.3055 58.9213,60.9722 57.5,64.5C 54.2317,65.487 50.8984,65.8204 47.5,65.5C 47.5,61.5 47.5,57.5 47.5,53.5 Z"/></g>
<g><path style="opacity:1" fill="#89c5f7" d="M 74.5,53.5 C 75.1386,54.0968 75.472,54.9302 75.5,56C 74.6473,58.8748 73.6473,61.7081 72.5,64.5C 69.2317,65.487 65.8984,65.8204 62.5,65.5C 62.3924,61.753 62.8924,58.0863 64,54.5C 65.6097,56.731 67.443,58.731 69.5,60.5C 71.5798,58.4268 73.2464,56.0934 74.5,53.5 Z"/></g>
<g><path style="opacity:1" fill="#88c5f7" d="M 21.5,70.5 C 24.3553,69.1968 27.3553,69.1968 30.5,70.5C 32.2901,73.3884 33.4568,76.3884 34,79.5C 29.3625,77.1032 25.1958,74.1032 21.5,70.5 Z"/></g>
<g><path style="opacity:1" fill="#8ec8f8" d="M 34.5,70.5 C 37.2869,69.5233 40.2869,69.19 43.5,69.5C 43.8226,73.226 43.4892,76.8927 42.5,80.5C 38.6405,77.9893 35.9738,74.6559 34.5,70.5 Z"/></g>
<g><path style="opacity:1" fill="#8ec8f8" d="M 47.5,69.5 C 50.5184,69.3354 53.5184,69.502 56.5,70C 55.1735,74.4966 52.5068,77.9966 48.5,80.5C 47.5108,76.8927 47.1774,73.226 47.5,69.5 Z"/></g>
<g><path style="opacity:1" fill="#88c5f7" d="M 60.5,69.5 C 63.5184,69.3354 66.5184,69.502 69.5,70C 65.962,74.0162 61.7954,77.1829 57,79.5C 57.8291,76.1484 58.9958,72.8151 60.5,69.5 Z"/></g>
</svg>
