<?xml version="1.0" encoding="UTF-8"?>
<!DOCTYPE svg PUBLIC "-//W3C//DTD SVG 1.1//EN" "http://www.w3.org/Graphics/SVG/1.1/DTD/svg11.dtd">
<svg xmlns="http://www.w3.org/2000/svg" version="1.1" width="96px" height="96px" style="shape-rendering:geometricPrecision; text-rendering:geometricPrecision; image-rendering:optimizeQuality; fill-rule:evenodd; clip-rule:evenodd" xmlns:xlink="http://www.w3.org/1999/xlink">
<g><path style="opacity:0.934" fill="#e2f1fc" d="M 84.5,32.5 C 59.7956,12.5462 35.1289,12.5462 10.5,32.5C 8.24347,31.4382 7.0768,29.7715 7,27.5C 21.509,13.9092 38.6757,8.74258 58.5,12C 69.9716,14.1514 79.8049,19.3181 88,27.5C 87.9232,29.7715 86.7565,31.4382 84.5,32.5 Z"/></g>
<g><path style="opacity:0.992" fill="#bbdefa" d="M 84.5,32.5 C 83.5,34.1667 82.1667,35.5 80.5,36.5C 58.4841,19.2158 36.4841,19.2158 14.5,36.5C 12.8333,35.5 11.5,34.1667 10.5,32.5C 35.1289,12.5462 59.7956,12.5462 84.5,32.5 Z"/></g>
<g><path style="opacity:0.996" fill="#90caf8" d="M 80.5,36.5 C 79.1667,38.5 77.5,40.1667 75.5,41.5C 65.4604,31.9883 53.4604,28.155 39.5,30C 31.4397,31.5918 24.773,35.4252 19.5,41.5C 17.5,40.1667 15.8333,38.5 14.5,36.5C 36.4841,19.2158 58.4841,19.2158 80.5,36.5 Z"/></g>
<g><path style="opacity:0.989" fill="#64b5f6" d="M 75.5,41.5 C 74.5,43.1667 73.1667,44.5 71.5,45.5C 58.3592,33.986 44.0258,32.486 28.5,41C 26.9368,42.736 25.2701,44.236 23.5,45.5C 21.8333,44.5 20.5,43.1667 19.5,41.5C 24.773,35.4252 31.4397,31.5918 39.5,30C 53.4604,28.155 65.4604,31.9883 75.5,41.5 Z"/></g>
<g><path style="opacity:0.984" fill="#42a5f4" d="M 71.5,45.5 C 70.5,47.1667 69.1667,48.5 67.5,49.5C 54.1391,38.9618 40.8058,38.9618 27.5,49.5C 25.8333,48.5 24.5,47.1667 23.5,45.5C 25.2701,44.236 26.9368,42.736 28.5,41C 44.0258,32.486 58.3592,33.986 71.5,45.5 Z"/></g>
<g><path style="opacity:0.985" fill="#1e88e5" d="M 67.5,49.5 C 66.5,51.1667 65.1667,52.5 63.5,53.5C 52.7546,45.6192 42.0879,45.6192 31.5,53.5C 29.8333,52.5 28.5,51.1667 27.5,49.5C 40.8058,38.9618 54.1391,38.9618 67.5,49.5 Z"/></g>
<g><path style="opacity:0.989" fill="#1b77d2" d="M 63.5,53.5 C 62.1667,55.1667 60.8333,56.8333 59.5,58.5C 51.4697,51.9015 43.4697,51.9015 35.5,58.5C 34.1667,56.8333 32.8333,55.1667 31.5,53.5C 42.0879,45.6192 52.7546,45.6192 63.5,53.5 Z"/></g>
<g><path style="opacity:0.952" fill="#b6daf9" d="M 59.5,58.5 C 61.1361,59.7489 62.3028,61.4156 63,63.5C 64.3672,82.7938 55.8672,89.2938 37.5,83C 31.8327,77.6811 29.9993,71.1811 32,63.5C 32.6972,61.4156 33.8639,59.7489 35.5,58.5C 43.4697,51.9015 51.4697,51.9015 59.5,58.5 Z"/></g>
<g><path style="opacity:1" fill="#1d77d2" d="M 43.5,57.5 C 56.0181,57.5049 60.8514,63.5049 58,75.5C 50.9656,83.4127 43.9656,83.4127 37,75.5C 33.8203,67.5325 35.987,61.5325 43.5,57.5 Z"/></g>
</svg>
