<?xml version="1.0" encoding="UTF-8"?>
<!DOCTYPE svg PUBLIC "-//W3C//DTD SVG 1.1//EN" "http://www.w3.org/Graphics/SVG/1.1/DTD/svg11.dtd">
<svg xmlns="http://www.w3.org/2000/svg" version="1.1" width="96px" height="96px" style="shape-rendering:geometricPrecision; text-rendering:geometricPrecision; image-rendering:optimizeQuality; fill-rule:evenodd; clip-rule:evenodd" xmlns:xlink="http://www.w3.org/1999/xlink">
<g><path style="opacity:0.948" fill="#434242" d="M 63.5,38.5 C 61.9826,38.5106 60.8159,39.1772 60,40.5C 59.8142,38.0995 59.3142,35.7662 58.5,33.5C 52.8333,31.5 47.1667,29.5 41.5,27.5C 36.2689,30.2499 34.1023,34.5832 35,40.5C 34.1841,39.1772 33.0174,38.5106 31.5,38.5C 30.0861,26.2575 35.4194,19.2575 47.5,17.5C 55.5676,17.1144 60.7342,20.7811 63,28.5C 63.4983,31.8168 63.665,35.1501 63.5,38.5 Z"/></g>
<g><path style="opacity:0.982" fill="#fcb44b" d="M 63.5,38.5 C 63.0363,44.7425 60.3697,49.7425 55.5,53.5C 50.1374,56.0794 44.8041,56.0794 39.5,53.5C 34.6303,49.7425 31.9637,44.7425 31.5,38.5C 33.0174,38.5106 34.1841,39.1772 35,40.5C 34.1023,34.5832 36.2689,30.2499 41.5,27.5C 47.1667,29.5 52.8333,31.5 58.5,33.5C 59.3142,35.7662 59.8142,38.0995 60,40.5C 60.8159,39.1772 61.9826,38.5106 63.5,38.5 Z"/></g>
<g><path style="opacity:0.917" fill="#444341" d="M 25.5,51.5 C 24.8826,51.6107 24.3826,51.944 24,52.5C 24.476,48.2008 22.8093,45.2008 19,43.5C 15.5,44.6667 12,45.8333 8.5,47C 7.75112,48.7337 7.25112,50.567 7,52.5C 6.61742,51.944 6.11742,51.6107 5.5,51.5C 5.78952,36.8928 12.1229,33.5594 24.5,41.5C 25.4173,44.7577 25.7507,48.091 25.5,51.5 Z"/></g>
<g><path style="opacity:0.917" fill="#444341" d="M 89.5,51.5 C 88.8826,51.6107 88.3826,51.944 88,52.5C 88.476,48.2008 86.8093,45.2008 83,43.5C 79.5,44.6667 76,45.8333 72.5,47C 71.7511,48.7337 71.2511,50.567 71,52.5C 70.6174,51.944 70.1174,51.6107 69.5,51.5C 69.7895,36.8928 76.1229,33.5594 88.5,41.5C 89.4173,44.7577 89.7507,48.091 89.5,51.5 Z"/></g>
<g><path style="opacity:1" fill="#7f4c1c" d="M 40.5,37.5 C 43.8606,38.2032 44.1939,39.5365 41.5,41.5C 39.3576,40.5629 39.0243,39.2296 40.5,37.5 Z"/></g>
<g><path style="opacity:1" fill="#7f4c1c" d="M 52.5,37.5 C 55.8606,38.2032 56.1939,39.5365 53.5,41.5C 51.3576,40.5629 51.0243,39.2296 52.5,37.5 Z"/></g>
<g><path style="opacity:0.971" fill="#fcb54d" d="M 25.5,51.5 C 25.9948,55.5032 24.4948,58.5032 21,60.5C 20.5172,61.448 20.3505,62.448 20.5,63.5C 20.1667,63.5 19.8333,63.5 19.5,63.5C 19.719,62.325 19.3857,61.325 18.5,60.5C 15.9377,61.3562 13.6044,61.6895 11.5,61.5C 7.41176,59.4133 5.41176,56.08 5.5,51.5C 6.11742,51.6107 6.61742,51.944 7,52.5C 7.25112,50.567 7.75112,48.7337 8.5,47C 12,45.8333 15.5,44.6667 19,43.5C 22.8093,45.2008 24.476,48.2008 24,52.5C 24.3826,51.944 24.8826,51.6107 25.5,51.5 Z"/></g>
<g><path style="opacity:0.971" fill="#fcb54d" d="M 89.5,51.5 C 89.9948,55.5032 88.4948,58.5032 85,60.5C 84.5172,61.448 84.3505,62.448 84.5,63.5C 84.1667,63.5 83.8333,63.5 83.5,63.5C 83.719,62.325 83.3857,61.325 82.5,60.5C 79.9377,61.3562 77.6044,61.6895 75.5,61.5C 71.4118,59.4133 69.4118,56.08 69.5,51.5C 70.1174,51.6107 70.6174,51.944 71,52.5C 71.2511,50.567 71.7511,48.7337 72.5,47C 76,45.8333 79.5,44.6667 83,43.5C 86.8093,45.2008 88.476,48.2008 88,52.5C 88.3826,51.944 88.8826,51.6107 89.5,51.5 Z"/></g>
<g><path style="opacity:1" fill="#ff9c12" d="M 39.5,53.5 C 44.8041,56.0794 50.1374,56.0794 55.5,53.5C 55.5,54.8333 55.5,56.1667 55.5,57.5C 50.1464,60.0411 44.813,60.0411 39.5,57.5C 39.5,56.1667 39.5,54.8333 39.5,53.5 Z"/></g>
<g><path style="opacity:0.993" fill="#78909c" d="M 39.5,57.5 C 41.2611,62.0175 43.2611,66.3509 45.5,70.5C 46.8333,75.8333 48.1667,75.8333 49.5,70.5C 51.7389,66.3509 53.7389,62.0175 55.5,57.5C 60.9176,58.3768 65.2509,61.0435 68.5,65.5C 70.7088,69.1394 71.7088,73.1394 71.5,77.5C 55.5,77.5 39.5,77.5 23.5,77.5C 23.3263,73.1888 24.3263,69.1888 26.5,65.5C 29.6975,61.0642 34.0308,58.3976 39.5,57.5 Z"/></g>
<g><path style="opacity:1" fill="#f5e5e2" d="M 39.5,57.5 C 44.813,60.0411 50.1464,60.0411 55.5,57.5C 53.7389,62.0175 51.7389,66.3509 49.5,70.5C 49.3444,67.9339 49.6777,65.4339 50.5,63C 48.4641,59.7067 46.4641,59.8734 44.5,63.5C 45.3742,65.7466 45.7076,68.0799 45.5,70.5C 43.2611,66.3509 41.2611,62.0175 39.5,57.5 Z"/></g>
<g><path style="opacity:1" fill="#d43634" d="M 49.5,70.5 C 48.1667,75.8333 46.8333,75.8333 45.5,70.5C 45.7076,68.0799 45.3742,65.7466 44.5,63.5C 46.4641,59.8734 48.4641,59.7067 50.5,63C 49.6777,65.4339 49.3444,67.9339 49.5,70.5 Z"/></g>
<g><path style="opacity:1" fill="#fa9706" d="M 19.5,63.5 C 18.8716,66.9549 16.8716,68.1215 13.5,67C 12.1772,66.1841 11.5106,65.0174 11.5,63.5C 11.5,62.8333 11.5,62.1667 11.5,61.5C 13.6044,61.6895 15.9377,61.3562 18.5,60.5C 19.3857,61.325 19.719,62.325 19.5,63.5 Z"/></g>
<g><path style="opacity:1" fill="#fa9706" d="M 83.5,63.5 C 82.8716,66.9549 80.8716,68.1215 77.5,67C 76.1772,66.1841 75.5106,65.0174 75.5,63.5C 75.5,62.8333 75.5,62.1667 75.5,61.5C 77.6044,61.6895 79.9377,61.3562 82.5,60.5C 83.3857,61.325 83.719,62.325 83.5,63.5 Z"/></g>
<g><path style="opacity:0.993" fill="#455a63" d="M 11.5,63.5 C 11.5106,65.0174 12.1772,66.1841 13.5,67C 16.8716,68.1215 18.8716,66.9549 19.5,63.5C 19.8333,63.5 20.1667,63.5 20.5,63.5C 22.5,64.1667 24.5,64.8333 26.5,65.5C 24.3263,69.1888 23.3263,73.1888 23.5,77.5C 15.5,77.5 7.5,77.5 -0.5,77.5C -0.5,74.8333 -0.5,72.1667 -0.5,69.5C 2.94847,66.4424 6.94847,64.4424 11.5,63.5 Z"/></g>
<g><path style="opacity:0.993" fill="#455a63" d="M 75.5,63.5 C 75.5106,65.0174 76.1772,66.1841 77.5,67C 80.8716,68.1215 82.8716,66.9549 83.5,63.5C 83.8333,63.5 84.1667,63.5 84.5,63.5C 88.62,64.7256 92.2867,66.7256 95.5,69.5C 95.5,72.1667 95.5,74.8333 95.5,77.5C 87.5,77.5 79.5,77.5 71.5,77.5C 71.7088,73.1394 70.7088,69.1394 68.5,65.5C 70.7457,64.5448 73.079,63.8782 75.5,63.5 Z"/></g>
</svg>
