<?xml version="1.0" encoding="UTF-8"?>
<!DOCTYPE svg PUBLIC "-//W3C//DTD SVG 1.1//EN" "http://www.w3.org/Graphics/SVG/1.1/DTD/svg11.dtd">
<svg xmlns="http://www.w3.org/2000/svg" version="1.1" width="48px" height="48px" style="shape-rendering:geometricPrecision; text-rendering:geometricPrecision; image-rendering:optimizeQuality; fill-rule:evenodd; clip-rule:evenodd" xmlns:xlink="http://www.w3.org/1999/xlink">
<g><path style="opacity:1" fill="#1564c0" d="M 0.5,11.5 C 1.83333,11.5 3.16667,11.5 4.5,11.5C 4.5,19.5 4.5,27.5 4.5,35.5C 3.16667,35.5 1.83333,35.5 0.5,35.5C 0.5,27.5 0.5,19.5 0.5,11.5 Z"/></g>
<g><path style="opacity:0.786" fill="#afbdc4" d="M 6.5,11.5 C 8.33702,11.6395 8.67036,12.3061 7.5,13.5C 6.70245,13.0431 6.36912,12.3764 6.5,11.5 Z"/></g>
<g><path style="opacity:0.786" fill="#afbdc4" d="M 10.5,11.5 C 12.337,11.6395 12.6704,12.3061 11.5,13.5C 10.7025,13.0431 10.3691,12.3764 10.5,11.5 Z"/></g>
<g><path style="opacity:0.786" fill="#afbdc4" d="M 14.5,11.5 C 16.337,11.6395 16.6704,12.3061 15.5,13.5C 14.7025,13.0431 14.3691,12.3764 14.5,11.5 Z"/></g>
<g><path style="opacity:0.786" fill="#afbdc4" d="M 18.5,11.5 C 20.337,11.6395 20.6704,12.3061 19.5,13.5C 18.7025,13.0431 18.3691,12.3764 18.5,11.5 Z"/></g>
<g><path style="opacity:0.786" fill="#afbdc4" d="M 22.5,11.5 C 24.337,11.6395 24.6704,12.3061 23.5,13.5C 22.7025,13.0431 22.3691,12.3764 22.5,11.5 Z"/></g>
<g><path style="opacity:0.786" fill="#afbdc4" d="M 26.5,11.5 C 28.337,11.6395 28.6704,12.3061 27.5,13.5C 26.7025,13.0431 26.3691,12.3764 26.5,11.5 Z"/></g>
<g><path style="opacity:0.786" fill="#afbdc4" d="M 30.5,11.5 C 32.337,11.6395 32.6704,12.3061 31.5,13.5C 30.7025,13.0431 30.3691,12.3764 30.5,11.5 Z"/></g>
<g><path style="opacity:0.786" fill="#afbdc4" d="M 34.5,11.5 C 36.337,11.6395 36.6704,12.3061 35.5,13.5C 34.7025,13.0431 34.3691,12.3764 34.5,11.5 Z"/></g>
<g><path style="opacity:0.786" fill="#afbdc4" d="M 38.5,11.5 C 40.337,11.6395 40.6704,12.3061 39.5,13.5C 38.7025,13.0431 38.3691,12.3764 38.5,11.5 Z"/></g>
<g><path style="opacity:1" fill="#1564c0" d="M 42.5,11.5 C 43.8333,11.5 45.1667,11.5 46.5,11.5C 46.5,19.5 46.5,27.5 46.5,35.5C 45.1667,35.5 43.8333,35.5 42.5,35.5C 42.5,27.5 42.5,19.5 42.5,11.5 Z"/></g>
<g><path style="opacity:0.937" fill="#2096f3" d="M 11.5,18.5 C 13.0481,18.8212 13.7148,19.8212 13.5,21.5C 20.1667,21.5 26.8333,21.5 33.5,21.5C 33.281,20.325 33.6143,19.325 34.5,18.5C 36.9095,19.7007 38.9095,21.3674 40.5,23.5C 38.9095,25.6326 36.9095,27.2993 34.5,28.5C 33.6143,27.675 33.281,26.675 33.5,25.5C 26.8333,25.5 20.1667,25.5 13.5,25.5C 13.719,26.675 13.3857,27.675 12.5,28.5C 10.0905,27.2993 8.09051,25.6326 6.5,23.5C 8.00625,21.5986 9.67292,19.9319 11.5,18.5 Z"/></g>
<g><path style="opacity:0.786" fill="#afbdc4" d="M 6.5,33.5 C 8.33702,33.6395 8.67036,34.3061 7.5,35.5C 6.70245,35.0431 6.36912,34.3764 6.5,33.5 Z"/></g>
<g><path style="opacity:0.786" fill="#afbdc4" d="M 10.5,33.5 C 12.337,33.6395 12.6704,34.3061 11.5,35.5C 10.7025,35.0431 10.3691,34.3764 10.5,33.5 Z"/></g>
<g><path style="opacity:0.786" fill="#afbdc4" d="M 14.5,33.5 C 16.337,33.6395 16.6704,34.3061 15.5,35.5C 14.7025,35.0431 14.3691,34.3764 14.5,33.5 Z"/></g>
<g><path style="opacity:0.786" fill="#afbdc4" d="M 18.5,33.5 C 20.337,33.6395 20.6704,34.3061 19.5,35.5C 18.7025,35.0431 18.3691,34.3764 18.5,33.5 Z"/></g>
<g><path style="opacity:0.786" fill="#afbdc4" d="M 22.5,33.5 C 24.337,33.6395 24.6704,34.3061 23.5,35.5C 22.7025,35.0431 22.3691,34.3764 22.5,33.5 Z"/></g>
<g><path style="opacity:0.786" fill="#afbdc4" d="M 26.5,33.5 C 28.337,33.6395 28.6704,34.3061 27.5,35.5C 26.7025,35.0431 26.3691,34.3764 26.5,33.5 Z"/></g>
<g><path style="opacity:0.786" fill="#afbdc4" d="M 30.5,33.5 C 32.337,33.6395 32.6704,34.3061 31.5,35.5C 30.7025,35.0431 30.3691,34.3764 30.5,33.5 Z"/></g>
<g><path style="opacity:0.786" fill="#afbdc4" d="M 34.5,33.5 C 36.337,33.6395 36.6704,34.3061 35.5,35.5C 34.7025,35.0431 34.3691,34.3764 34.5,33.5 Z"/></g>
<g><path style="opacity:0.786" fill="#afbdc4" d="M 38.5,33.5 C 40.337,33.6395 40.6704,34.3061 39.5,35.5C 38.7025,35.0431 38.3691,34.3764 38.5,33.5 Z"/></g>
</svg>
